<svg width="30" height="30" viewBox="0 0 30 30" fill="none" xmlns="http://www.w3.org/2000/svg">
<mask id="mask0_361_1629" style="mask-type:alpha" maskUnits="userSpaceOnUse" x="0" y="0" width="30" height="30">
<circle cx="15" cy="15" r="15" fill="#D9D9D9"/>
</mask>
<g mask="url(#mask0_361_1629)">
<mask id="mask1_361_1629" style="mask-type:luminance" maskUnits="userSpaceOnUse" x="-5" y="0" width="41" height="30">
<path d="M-5 0H35.0019V30H-5V0Z" fill="white"/>
</mask>
<g mask="url(#mask1_361_1629)">
<path fill-rule="evenodd" clip-rule="evenodd" d="M-11.2524 0H41.2476V30H-11.2524V0Z" fill="white"/>
<path fill-rule="evenodd" clip-rule="evenodd" d="M-11.2524 20.1445H41.2476V30H-11.2524V20.1445Z" fill="#DA0000"/>
<path fill-rule="evenodd" clip-rule="evenodd" d="M-11.2524 0H41.2476V9.85547H-11.2524V0Z" fill="#239F40"/>
<path fill-rule="evenodd" clip-rule="evenodd" d="M16.3928 11.5718C16.885 12.1812 18.4143 15.5327 15.4729 17.7358C14.0842 18.7788 14.9455 18.8257 14.9865 19.0015C17.2131 17.8237 17.9338 16.2183 17.9162 14.7827C17.9045 13.353 17.1428 12.0874 16.3928 11.5718Z" fill="#DA0000"/>
<path fill-rule="evenodd" clip-rule="evenodd" d="M16.6855 11.4136C17.2291 11.7444 17.6925 12.1918 18.042 12.7236C18.3915 13.2554 18.6185 13.8582 18.7065 14.4885C18.7946 15.1187 18.7415 15.7607 18.551 16.3679C18.3606 16.9751 18.0376 17.5324 17.6054 17.9995C19.1992 17.648 21.2382 12.937 16.6855 11.4136ZM13.3105 11.4136C12.7673 11.7449 12.3045 12.1927 11.9555 12.7247C11.6065 13.2568 11.3801 13.8597 11.2926 14.4899C11.2052 15.1201 11.2588 15.7619 11.4497 16.3689C11.6406 16.9758 11.964 17.5328 12.3964 17.9995C10.7968 17.648 8.76361 12.937 13.3105 11.4136Z" fill="#DA0000"/>
<path fill-rule="evenodd" clip-rule="evenodd" d="M13.6029 11.5718C13.1107 12.1812 11.5814 15.5327 14.5228 17.7358C15.9056 18.7788 15.0501 18.8257 15.0091 19.0015C12.7825 17.8237 12.0618 16.2183 12.0794 14.7827C12.0911 13.353 12.8529 12.0874 13.6029 11.5718Z" fill="#DA0000"/>
<path fill-rule="evenodd" clip-rule="evenodd" d="M17.8228 18.6965C16.9497 18.7083 15.854 18.5793 15.0396 18.1516C15.1743 18.4153 15.2856 18.5793 15.4204 18.8372C16.1938 18.9133 17.2661 19.0012 17.8228 18.6965ZM12.2563 18.6965C13.1294 18.7083 14.2251 18.5793 15.0396 18.1516C14.9048 18.4153 14.7935 18.5793 14.6587 18.8372C13.8853 18.9133 12.813 19.0012 12.2563 18.6965ZM13.856 10.5696C14.0317 11.0383 14.4946 11.1086 14.9868 10.8333C15.3501 11.0442 15.9067 11.0618 16.1001 10.593C16.2466 11.7532 15.0278 11.4719 14.9868 11.2493C14.5298 11.6887 13.686 11.4368 13.856 10.5696Z" fill="#DA0000"/>
<path fill-rule="evenodd" clip-rule="evenodd" d="M15.022 19.4292L15.479 18.9019L15.5435 11.8647L14.9985 11.3843L14.4536 11.8413L14.5649 18.9312L15.022 19.4292Z" fill="#DA0000"/>
</g>
</g>
</svg>
