<svg width="83" height="41" viewBox="0 0 83 41" fill="none" xmlns="http://www.w3.org/2000/svg">
<path d="M2.7796 7.90489C2.7796 5.17732 4.9562 2.96572 7.64061 2.96572C8.6526 2.96572 9.58919 3.28325 10.3668 3.82045C10.9164 4.20075 11.3824 4.69364 11.7394 5.26408C12.4962 4.7841 13.2538 4.30412 14.0105 3.82415C14.0133 3.8223 14.0151 3.82138 14.0169 3.81953H14.0078C12.6742 1.67532 10.3214 0.250153 7.6397 0.250153C3.48 0.250153 0.10791 3.67646 0.10791 7.90304C0.10791 8.36825 0.150607 8.82238 0.228732 9.26451H2.97037C2.84864 8.83161 2.77869 8.37656 2.77869 7.90304L2.7796 7.90489Z" fill="#FFCB00"/>
<path d="M15.0518 6.54432C15.0518 6.54432 15.0518 6.54432 15.0518 6.5434H9.72383C9.72383 6.5434 9.72292 6.54339 9.72201 6.54432H5.68858V9.26635H12.3101C11.7278 11.3312 9.86009 12.844 7.6408 12.844C6.62699 12.844 5.68586 12.5274 4.90643 11.9884C4.33956 11.5952 3.86082 11.0829 3.50199 10.4875C2.74618 10.9666 1.99036 11.4456 1.23364 11.9247C1.24636 11.9459 1.25817 11.9672 1.27089 11.9884C2.30559 13.6508 3.95257 14.8775 5.89025 15.3464C6.45257 15.483 7.0376 15.5587 7.6408 15.5587C9.84828 15.5587 11.8332 14.5932 13.2104 13.0554C14.1424 12.0142 14.7965 10.7109 15.0518 9.26635C15.1299 8.82422 15.1726 8.37008 15.1726 7.90579C15.1726 7.44151 15.1299 6.98645 15.0518 6.54524V6.54432Z" fill="#FFCB00"/>
<path d="M10.5758 33.4843C9.78266 32.8103 8.43849 32.2515 6.54057 31.807C5.61981 31.5847 4.94033 31.3969 4.50213 31.2445C4.06301 31.0921 3.72743 30.8944 3.49354 30.6503C3.25965 30.4072 3.14317 30.0843 3.14317 29.6815C3.14317 29.1118 3.42606 28.6645 3.99275 28.338C4.55852 28.0114 5.31658 27.8481 6.26508 27.8481C7.45394 27.8481 8.8055 28.1121 10.3207 28.64L11.2341 26.285C9.46464 25.6464 7.8154 25.3261 6.28634 25.3261C5.15388 25.3261 4.14159 25.5003 3.24948 25.8469C2.35738 26.1943 1.65664 26.6978 1.14726 27.3573C0.636955 28.0177 0.382727 28.7915 0.382727 29.6806C0.382727 30.4725 0.549131 31.1429 0.881937 31.6918C1.21382 32.2406 1.75278 32.716 2.49605 33.1188C3.23931 33.5215 4.26177 33.8971 5.56434 34.2446L5.98867 34.3698C6.72454 34.5503 7.28753 34.7099 7.67673 34.8487C8.06593 34.9875 8.38487 35.1753 8.63263 35.4112C8.88038 35.648 9.00426 35.9528 9.00426 36.3283C9.00426 36.8699 8.71398 37.2936 8.13342 37.5993C7.55285 37.905 6.78833 38.0574 5.83983 38.0574C5.06143 38.0574 4.20445 37.9322 3.26982 37.6827C2.33519 37.4324 1.56327 37.1339 0.954969 36.7865L0 39.0372C0.778397 39.4953 1.70563 39.8708 2.78171 40.162C3.85778 40.4542 4.91167 40.5993 5.94614 40.5993C7.06381 40.5993 8.06593 40.4188 8.95064 40.0577C9.83535 39.6967 10.525 39.1796 11.0205 38.5055C11.516 37.8315 11.7638 37.0296 11.7638 36.0988C11.7638 35.0293 11.3672 34.1575 10.5749 33.4834L10.5758 33.4843Z" fill="#FFCB00"/>
<path d="M81.8119 33.4843C81.0187 32.8103 79.6746 32.2515 77.7767 31.807C76.8559 31.5847 76.1764 31.3969 75.7382 31.2445C75.2991 31.0921 74.9635 30.8944 74.7296 30.6503C74.4957 30.4072 74.3793 30.0843 74.3793 29.6815C74.3793 29.1118 74.6621 28.6645 75.2288 28.338C75.7946 28.0114 76.5527 27.8481 77.5012 27.8481C78.69 27.8481 80.0416 28.1121 81.5568 28.64L82.4701 26.285C80.7007 25.6464 79.0515 25.3261 77.5224 25.3261C76.39 25.3261 75.3777 25.5003 74.4856 25.8469C73.5935 26.1943 72.8927 26.6978 72.3833 27.3573C71.873 28.0177 71.6188 28.7915 71.6188 29.6806C71.6188 30.4725 71.7852 31.1429 72.118 31.6918C72.4499 32.2406 72.9889 32.716 73.7321 33.1188C74.4754 33.5215 75.4979 33.8971 76.8004 34.2446L77.2248 34.3698C77.9606 34.5503 78.5236 34.7099 78.9128 34.8487C79.302 34.9875 79.621 35.1753 79.8687 35.4112C80.1165 35.648 80.2403 35.9528 80.2403 36.3283C80.2403 36.8699 79.9501 37.2936 79.3695 37.5993C78.7889 37.905 78.0244 38.0574 77.0759 38.0574C76.2975 38.0574 75.4405 37.9322 74.5059 37.6827C73.5713 37.4324 72.7994 37.1339 72.1911 36.7865L71.2361 39.0372C72.0145 39.4953 72.9417 39.8708 74.0178 40.162C75.0939 40.4542 76.1478 40.5993 77.1822 40.5993C78.2999 40.5993 79.302 40.4188 80.1867 40.0577C81.0714 39.6967 81.7611 39.1796 82.2566 38.5055C82.7521 37.8315 82.9999 37.0296 82.9999 36.0988C82.9999 35.0293 82.6033 34.1575 81.811 33.4834L81.8119 33.4843Z" fill="#FFCB00"/>
<path d="M20.7553 14.3325C19.5985 13.6439 18.682 12.7155 18.0058 11.5473C17.3296 10.3791 16.9919 9.10551 16.9919 7.72926C16.9919 6.35301 17.3296 5.07942 18.0058 3.91029C18.682 2.74207 19.5976 1.81367 20.7553 1.12509C21.912 0.436513 23.1662 0.0922241 24.5186 0.0922241C25.871 0.0922241 27.1215 0.436513 28.271 1.12509C29.4205 1.81367 30.3334 2.74207 31.0096 3.91029C31.6849 5.07851 32.0234 6.3521 32.0234 7.72926C32.0234 9.10641 31.6849 10.3791 31.0096 11.5473C30.3334 12.7155 29.4205 13.6449 28.271 14.3325C27.1215 15.0211 25.8701 15.3654 24.5186 15.3654C23.1671 15.3654 21.912 15.0211 20.7553 14.3325ZM26.9122 12.1205C27.644 11.6681 28.2255 11.0531 28.6578 10.2737C29.0892 9.49431 29.3058 8.64585 29.3058 7.72835C29.3058 6.81085 29.0892 5.96239 28.6578 5.18297C28.2264 4.40355 27.644 3.78856 26.9122 3.33617C26.1805 2.88469 25.3823 2.65849 24.5186 2.65849C23.6549 2.65849 22.8322 2.88469 22.0931 3.33617C21.3541 3.78856 20.7689 4.40446 20.3375 5.18297C19.9052 5.96239 19.6895 6.80995 19.6895 7.72835C19.6895 8.64676 19.9052 9.49522 20.3375 10.2737C20.7689 11.0531 21.355 11.6681 22.0931 12.1205C22.8322 12.5729 23.6403 12.7991 24.5186 12.7991C25.3969 12.7991 26.1805 12.5729 26.9122 12.1205Z" fill="#FFCB00"/>
<path d="M42.4804 15.3654H33.9844V0.0922241H36.6781V12.7768H42.4804V15.3654Z" fill="#FFCB00"/>
<path d="M45.0945 0.0922241H49.7515C51.0332 0.0922241 52.2215 0.433208 53.3155 1.11517C54.4085 1.79714 55.2724 2.72158 55.9071 3.88944C56.5409 5.0573 56.8583 6.32936 56.8583 7.70749C56.8583 9.08563 56.5409 10.3833 55.9071 11.5587C55.2724 12.7332 54.4085 13.6624 53.3155 14.3434C52.2215 15.0254 51.0341 15.3654 49.7515 15.3654H45.0945V0.0922241ZM51.868 12.1346C52.59 11.678 53.1638 11.0576 53.5887 10.2743C54.0136 9.49102 54.2261 8.63572 54.2261 7.70749C54.2261 6.77927 54.0136 5.92681 53.5887 5.15108C53.1638 4.37534 52.59 3.75873 51.868 3.30125C51.1461 2.84376 50.3527 2.61549 49.4879 2.61549H47.7267V12.8194H49.4879C50.3518 12.8194 51.1452 12.5911 51.868 12.1336V12.1346Z" fill="#FFCB00"/>
<path d="M58.8188 0.0922241H68.6011L68.622 2.68085H61.5302V6.53206H67.8502V8.92556H61.5302V12.7768H68.6011V15.3654H58.8188V0.0922241Z" fill="#FFCB00"/>
<path d="M79.0491 15.3654L73.1745 4.18212V15.3654H70.5825V0.0922241H74.0736L80.4079 12.3193V0.0922241H82.9998V15.3654H79.0491Z" fill="#FFCB00"/>
<path d="M15.0324 25.3271H20.5304C21.4146 25.3271 22.2384 25.5591 22.9989 26.0233C23.7594 26.4874 24.3646 27.1182 24.8135 27.9157C25.2633 28.7142 25.4882 29.5771 25.4882 30.5043C25.4882 31.4316 25.2633 32.321 24.8135 33.1261C24.3637 33.9312 23.7621 34.5658 23.0088 35.0299C22.2555 35.494 21.4291 35.7261 20.5295 35.7261H17.7285V40.5993H15.0315V25.3261L15.0324 25.3271ZM17.7294 33.1375H20.3434C20.7715 33.1375 21.1771 33.0181 21.5573 32.7785C21.9376 32.5389 22.2384 32.2168 22.4597 31.8105C22.68 31.4042 22.7911 30.9694 22.7911 30.5053C22.7911 30.0412 22.68 29.6102 22.4597 29.2105C22.2375 28.8117 21.9376 28.4963 21.5573 28.2643C21.1771 28.0322 20.7724 27.9157 20.3434 27.9157H17.7294V33.1375Z" fill="#FFCB00"/>
<path d="M31.2121 39.5664C30.0553 38.8779 29.1388 37.9495 28.4626 36.7812C27.7864 35.613 27.4487 34.3394 27.4487 32.9632C27.4487 31.5869 27.7864 30.3133 28.4626 29.1442C29.1388 27.976 30.0544 27.0476 31.2121 26.359C32.3688 25.6704 33.623 25.3261 34.9754 25.3261C36.3278 25.3261 37.5783 25.6704 38.7278 26.359C39.8773 27.0476 40.7901 27.976 41.4664 29.1442C42.1417 30.3124 42.4802 31.586 42.4802 32.9632C42.4802 34.3403 42.1417 35.613 41.4664 36.7812C40.7901 37.9495 39.8773 38.8788 38.7278 39.5664C37.5783 40.255 36.3269 40.5993 34.9754 40.5993C33.6239 40.5993 32.3688 40.255 31.2121 39.5664ZM37.369 37.3545C38.1007 36.9021 38.6823 36.2871 39.1146 35.5076C39.546 34.7282 39.7626 33.8798 39.7626 32.9623C39.7626 32.0448 39.546 31.1963 39.1146 30.4169C38.6832 29.6375 38.1007 29.0225 37.369 28.5701C36.6373 28.1186 35.8391 27.8924 34.9754 27.8924C34.1117 27.8924 33.289 28.1186 32.5499 28.5701C31.8109 29.0225 31.2257 29.6384 30.7943 30.4169C30.362 31.1963 30.1463 32.0439 30.1463 32.9623C30.1463 33.8807 30.362 34.7291 30.7943 35.5076C31.2257 36.2871 31.8118 36.9021 32.5499 37.3545C33.289 37.8068 34.0971 38.033 34.9754 38.033C35.8537 38.033 36.6373 37.8068 37.369 37.3545Z" fill="#FFCB00"/>
<path d="M45.0945 25.3261H50.8147C51.7498 25.3261 52.6097 25.5582 53.3943 26.0223C54.1781 26.4864 54.8012 27.1144 55.2616 27.9043C55.7212 28.6952 55.9523 29.5619 55.9523 30.5043C55.9523 31.4468 55.7212 32.2632 55.2616 32.9954C54.8002 33.7276 54.1781 34.294 53.3943 34.6918C52.6106 35.0905 51.7507 35.2904 50.8147 35.2904H47.9006V40.5993H45.0945V25.3261ZM51.6887 35.7365C51.3354 35.4685 50.8429 35.334 50.2105 35.334H47.3179V33.9416H50.0808C51.1305 33.9416 51.9406 33.9852 52.5091 34.0723C53.0777 34.1595 53.5814 34.3811 54.0202 34.7363C54.4591 35.0915 54.8369 35.6541 55.1536 36.4223L56.8583 40.5993H54.0738L52.5411 36.9442C52.3259 36.4081 52.0411 36.0055 51.6887 35.7365ZM52.401 32.3428C52.8972 31.8285 53.1463 31.2147 53.1463 30.5043C53.1463 29.794 52.8982 29.1849 52.401 28.6772C51.9048 28.1696 51.3109 27.9157 50.6202 27.9157H47.9006V33.1157H50.6202C51.3109 33.1157 51.9048 32.8581 52.401 32.3437V32.3428Z" fill="#FFCB00"/>
<path d="M61.6449 27.9148H57.5336L57.5117 25.3261H68.622V27.9148H64.466V40.5993H61.6449V27.9148Z" fill="#FFCB00"/>
</svg>
