<svg width="99" height="128" viewBox="0 0 99 128" fill="none" xmlns="http://www.w3.org/2000/svg">
<g clip-path="url(#clip0_273_1554)">
<mask id="mask0_273_1554" style="mask-type:luminance" maskUnits="userSpaceOnUse" x="0" y="0" width="99" height="128">
<path d="M99 0H0V128H99V0Z" fill="white"/>
</mask>
<g mask="url(#mask0_273_1554)">
<path d="M84.4189 47.7807L98.8997 51.6847L84.6843 56.0399L84.4189 47.7807Z" fill="#F0A04D"/>
<path d="M75.6855 27.4422L89.5798 21.9798L80.8202 33.9594L75.6855 27.4422Z" fill="#F0A04D"/>
<path d="M56.2861 16.4335L64.0559 3.80322L64.3532 18.5822L56.2861 16.4335Z" fill="#F0A04D"/>
<path d="M34.0881 19.183L32.6074 4.47224L41.842 16.1002L34.0881 19.183Z" fill="#F0A04D"/>
<path d="M18.0361 34.5863L7.89941 23.7218L22.3509 27.513L18.0361 34.5863Z" fill="#F0A04D"/>
<path d="M14.5918 56.4412L-0.117188 53.7941L13.732 48.224L14.5918 56.4412Z" fill="#F0A04D"/>
<path d="M28.6689 55.7119C28.6689 55.7591 70.3119 55.9743 70.3119 55.9743C70.3119 55.9743 70.5959 78.5035 59.0713 91.947C56.422 95.0405 53.3777 97.7806 50.0145 100.099C46.484 97.8003 43.2832 95.0415 40.4986 91.8971C32.2061 82.536 28.7723 64.1076 28.7723 64.1076H20.2807C21.0158 73.4897 24.1206 86.1803 34.0796 97.4278C36.4338 100.09 39.04 102.523 41.8626 104.695C36.1786 107.219 30.0797 108.705 23.8604 109.082L19.8164 109.281L20.3683 124.454H77.5244L78.0551 108.667L74.088 108.405C68.5144 107.968 63.0486 106.645 57.901 104.488C60.5627 102.347 63.018 99.9668 65.2355 97.378C79.3236 80.9461 79.1378 61.8277 78.3151 53.933V51.6086L78.1799 47.6416L69.7493 47.5813H29.1651C31.0889 38.0969 39.4558 30.9396 49.4545 30.9396C52.6635 30.9471 55.8262 31.6967 58.6899 33.1286C61.5534 34.5604 64.0386 36.6347 65.9467 39.1856H75.6032C70.495 28.4864 59.0685 21.3843 46.2092 22.7958C32.0309 24.3516 20.4692 37.4462 20.4692 51.5482V54.4106L20.3843 55.7225H28.6689M69.5742 116.066H29.4464L28.5096 116.192L28.6503 116.066H29.4464C34.6262 115.363 42.2394 114.012 50.0755 109.675C56.2079 112.887 62.8574 115.023 69.7281 115.987L69.5742 116.066Z" fill="#F0A04D"/>
</g>
</g>
<defs>
<clipPath id="clip0_273_1554">
<rect width="99" height="128" fill="white"/>
</clipPath>
</defs>
</svg>
