<svg width="372" height="372" viewBox="0 0 372 372" fill="none" xmlns="http://www.w3.org/2000/svg">
<g clip-path="url(#clip0_369_133)">
<path d="M310.398 295.971C310.331 295.403 310.264 294.824 310.196 294.256C310.264 294.718 310.331 295.2 310.37 295.663C310.389 295.769 310.389 295.885 310.389 295.971H310.398Z" fill="#F87E01"/>
<path d="M310.206 294.256C308.866 283.539 307.459 270.76 306.081 258.155C307.469 270.192 308.847 282.229 310.206 294.256Z" fill="#F87E01"/>
<path d="M292.001 273.526C291.471 268.784 290.921 264.043 290.401 259.292H290.449C290.979 264.033 291.5 268.823 292.01 273.526H292.001Z" fill="#F87E01"/>
<path d="M106.395 249.488C104.111 257.516 101.816 265.533 99.5309 273.551L85.4031 263.292L85.2199 263.152L84.4548 262.602C86.2437 258.076 88.3235 253.712 90.6728 249.498C90.662 249.541 90.6404 249.574 90.6297 249.606C90.6404 249.574 90.662 249.541 90.6836 249.498C93.938 243.668 97.7097 238.151 101.956 233.043C103.432 238.528 104.919 244.002 106.395 249.488Z" fill="white"/>
<path d="M372 199.248V307.648H367.603V205.111L290.682 261.029C274.108 219.519 233.502 190.121 186.151 190.121C138.8 190.121 98.4422 219.335 81.7604 260.641L3.09297 203.473C0.237238 201.393 0.237238 197.114 3.09297 195.035L183.414 63.9941C185.235 62.6686 187.714 62.6686 189.535 63.9941L369.856 195.035C370.685 195.638 371.267 196.425 371.612 197.298C371.86 197.923 372 198.58 372 199.248Z" fill="white"/>
<path d="M215.646 209.841H157.292C152.561 220.284 147.83 230.726 143.1 241.168C148.811 249.003 154.523 256.837 160.234 264.661H212.715C218.426 256.826 224.138 249.003 229.849 241.168C225.119 230.726 220.388 220.284 215.657 209.841H215.646Z" fill="white"/>
<path d="M215.646 209.841C220.474 207.427 225.301 205.014 230.129 202.6C216.659 196.651 201.787 193.343 186.14 193.343C170.493 193.343 155.88 196.597 142.507 202.438C147.431 204.906 152.367 207.363 157.292 209.831H215.646V209.841Z" fill="#01A89E"/>
<path d="M266.554 249.498C254.312 246.729 242.08 243.949 229.839 241.179C224.127 249.013 218.416 256.848 212.704 264.671C216.681 279.446 220.657 294.231 224.644 309.005L273.418 273.573C271.134 265.544 268.838 257.527 266.554 249.498Z" fill="#01A89E"/>
<path d="M286.393 259.725C286.188 259.132 285.983 258.54 285.778 257.958C285.649 257.613 285.52 257.29 285.401 256.945C285.391 256.913 285.369 256.869 285.358 256.837C281.489 248.485 276.597 240.705 270.842 233.657C269.42 238.938 267.987 244.218 266.564 249.498C268.849 257.527 271.144 265.544 273.429 273.573L287.557 263.314C287.276 262.387 286.985 261.482 286.695 260.587C286.598 260.296 286.49 260.016 286.393 259.725Z" fill="white"/>
<path d="M106.395 249.498C104.11 257.516 101.815 265.544 99.5305 273.562L148.304 309.005C152.281 294.231 156.257 279.446 160.245 264.671C154.533 256.837 148.822 249.013 143.11 241.179C130.868 243.949 118.637 246.729 106.395 249.498Z" fill="#01A89E"/>
</g>
<defs>
<clipPath id="clip0_369_133">
<rect width="372" height="372" fill="white"/>
</clipPath>
</defs>
</svg>
