<svg width="24" height="24" viewBox="0 0 24 24" fill="none" xmlns="http://www.w3.org/2000/svg">
<path d="M8 2V5M16 2V5M3.5 9.09H20.5M21 8.5V17C21 20 19.5 22 16 22H8C4.5 22 3 20 3 17V8.5C3 5.5 4.5 3.5 8 3.5H16C19.5 3.5 21 5.5 21 8.5Z" stroke="#212121" stroke-miterlimit="10" stroke-linecap="round" stroke-linejoin="round"/>
<path d="M15.6949 13.2C15.4188 13.2 15.1949 13.4238 15.1949 13.7C15.1949 13.9761 15.4188 14.2 15.6949 14.2H15.7039C15.9801 14.2 16.2039 13.9761 16.2039 13.7C16.2039 13.4238 15.9801 13.2 15.7039 13.2H15.6949ZM15.6949 16.2C15.4188 16.2 15.1949 16.4238 15.1949 16.7C15.1949 16.9761 15.4188 17.2 15.6949 17.2H15.7039C15.9801 17.2 16.2039 16.9761 16.2039 16.7C16.2039 16.4238 15.9801 16.2 15.7039 16.2H15.6949ZM11.9949 13.2C11.7188 13.2 11.4949 13.4238 11.4949 13.7C11.4949 13.9761 11.7188 14.2 11.9949 14.2H12.0049C12.2811 14.2 12.5049 13.9761 12.5049 13.7C12.5049 13.4238 12.2811 13.2 12.0049 13.2H11.9949ZM11.9949 16.2C11.7188 16.2 11.4949 16.4238 11.4949 16.7C11.4949 16.9761 11.7188 17.2 11.9949 17.2H12.0049C12.2811 17.2 12.5049 16.9761 12.5049 16.7C12.5049 16.4238 12.2811 16.2 12.0049 16.2H11.9949ZM8.29395 13.2C8.0178 13.2 7.79395 13.4238 7.79395 13.7C7.79395 13.9761 8.0178 14.2 8.29395 14.2H8.30395C8.58009 14.2 8.80395 13.9761 8.80395 13.7C8.80395 13.4238 8.58009 13.2 8.30395 13.2H8.29395ZM8.29395 16.2C8.0178 16.2 7.79395 16.4238 7.79395 16.7C7.79395 16.9761 8.0178 17.2 8.29395 17.2H8.30395C8.58009 17.2 8.80395 16.9761 8.80395 16.7C8.80395 16.4238 8.58009 16.2 8.30395 16.2H8.29395Z" stroke="#212121" stroke-linecap="round" stroke-linejoin="round"/>
</svg>
