<svg width="69" height="68" viewBox="0 0 69 68" fill="none" xmlns="http://www.w3.org/2000/svg">
<path d="M25.3616 40.6012C25.3616 44.2562 28.1666 47.2029 31.6516 47.2029H38.7632C41.7949 47.2029 44.2599 44.6245 44.2599 41.4512C44.2599 37.9945 42.7582 36.7762 40.5199 35.9829L29.1016 32.0162C26.8632 31.2229 25.3616 30.0045 25.3616 26.5479C25.3616 23.3745 27.8266 20.7962 30.8582 20.7962H37.9699C41.4549 20.7962 44.2599 23.7429 44.2599 27.3979" stroke="white" stroke-width="3" stroke-linecap="round" stroke-linejoin="round"/>
<path d="M34.7913 17V51" stroke="white" stroke-width="3" stroke-linecap="round" stroke-linejoin="round"/>
<path d="M43.2913 62.3334H26.2913C12.1247 62.3334 6.45801 56.6667 6.45801 42.5V25.5C6.45801 11.3334 12.1247 5.66669 26.2913 5.66669H43.2913C57.458 5.66669 63.1247 11.3334 63.1247 25.5V42.5C63.1247 56.6667 57.458 62.3334 43.2913 62.3334Z" stroke="white" stroke-width="3" stroke-linecap="round" stroke-linejoin="round"/>
</svg>
