<svg width="132" height="36" viewBox="0 0 132 36" fill="none" xmlns="http://www.w3.org/2000/svg">
<mask id="path-1-inside-1_347_1482" fill="white">
<path fill-rule="evenodd" clip-rule="evenodd" d="M132 8.30767L123.692 -3.63138e-07L114 9.69228L104.308 -9.18445e-05L96 8.30758L105.692 17.9999L96.0001 27.6922L104.308 35.9999L114 26.3076L123.692 35.9998L132 27.6921L122.308 17.9999L132 8.30767Z"/>
</mask>
<path d="M123.692 9.02709e-05L124.399 -0.707018L123.692 -1.41412L122.985 -0.707018L123.692 9.02709e-05ZM132 8.30776L132.707 9.01487L133.414 8.30776L132.707 7.60065L132 8.30776ZM114 9.69237L113.293 10.3995L114 11.1066L114.707 10.3995L114 9.69237ZM104.308 -1.21047e-06L105.015 -0.707109L104.308 -1.41421L103.6 -0.707109L104.308 -1.21047e-06ZM95.9999 8.30767L95.2928 7.60056L94.5857 8.30767L95.2928 9.01478L95.9999 8.30767ZM105.692 18L106.399 18.7071L107.107 18L106.399 17.2929L105.692 18ZM96 27.6923L95.2929 26.9852L94.5858 27.6923L95.2929 28.3994L96 27.6923ZM104.308 36L103.601 36.7071L104.308 37.4142L105.015 36.7071L104.308 36ZM114 26.3077L114.707 25.6006L114 24.8935L113.293 25.6006L114 26.3077ZM123.692 35.9999L122.985 36.707L123.692 37.4141L124.399 36.707L123.692 35.9999ZM132 27.6922L132.707 28.3993L133.414 27.6922L132.707 26.9851L132 27.6922ZM122.308 18L121.601 17.2929L120.893 18L121.601 18.7071L122.308 18ZM122.985 0.707198L131.293 9.01487L132.707 7.60065L124.399 -0.707018L122.985 0.707198ZM114.707 10.3995L124.399 0.707198L122.985 -0.707018L113.293 8.98526L114.707 10.3995ZM103.6 0.707107L113.293 10.3995L114.707 8.98526L105.015 -0.707109L103.6 0.707107ZM96.707 9.01478L105.015 0.707107L103.6 -0.707109L95.2928 7.60056L96.707 9.01478ZM106.399 17.2929L96.707 7.60056L95.2928 9.01478L104.985 18.7071L106.399 17.2929ZM96.7071 28.3994L106.399 18.7071L104.985 17.2929L95.2929 26.9852L96.7071 28.3994ZM105.015 35.2929L96.7071 26.9852L95.2929 28.3994L103.601 36.7071L105.015 35.2929ZM113.293 25.6006L103.601 35.2929L105.015 36.7071L114.707 27.0148L113.293 25.6006ZM124.399 35.2928L114.707 25.6006L113.293 27.0148L122.985 36.707L124.399 35.2928ZM131.293 26.9851L122.985 35.2928L124.399 36.707L132.707 28.3993L131.293 26.9851ZM121.601 18.7071L131.293 28.3993L132.707 26.9851L123.015 17.2929L121.601 18.7071ZM131.293 7.60065L121.601 17.2929L123.015 18.7071L132.707 9.01487L131.293 7.60065Z" fill="#212121" mask="url(#path-1-inside-1_347_1482)"/>
<mask id="path-3-inside-2_347_1482" fill="white">
<path fill-rule="evenodd" clip-rule="evenodd" d="M84.0001 8.30767L75.6924 -3.63137e-07L66.0001 9.69228L56.3077 -9.18445e-05L48 8.30758L57.6924 17.9999L48.0001 27.6922L56.3078 35.9999L66.0001 26.3076L75.6923 35.9998L84 27.6921L74.3078 17.9999L84.0001 8.30767Z"/>
</mask>
<path d="M75.6923 9.02709e-05L76.3994 -0.707018L75.6923 -1.41412L74.9852 -0.707018L75.6923 9.02709e-05ZM84 8.30776L84.7071 9.01487L85.4142 8.30776L84.7071 7.60065L84 8.30776ZM66 9.69237L65.2929 10.3995L66 11.1066L66.7071 10.3995L66 9.69237ZM56.3076 -1.21047e-06L57.0147 -0.707109L56.3076 -1.41421L55.6005 -0.707109L56.3076 -1.21047e-06ZM47.9999 8.30767L47.2928 7.60056L46.5857 8.30767L47.2928 9.01478L47.9999 8.30767ZM57.6923 18L58.3994 18.7071L59.1065 18L58.3994 17.2929L57.6923 18ZM48 27.6923L47.2929 26.9852L46.5858 27.6923L47.2929 28.3994L48 27.6923ZM56.3077 36L55.6006 36.7071L56.3077 37.4142L57.0148 36.7071L56.3077 36ZM66 26.3077L66.7071 25.6006L66 24.8935L65.2929 25.6006L66 26.3077ZM75.6922 35.9999L74.9851 36.707L75.6922 37.4141L76.3993 36.707L75.6922 35.9999ZM83.9999 27.6922L84.707 28.3993L85.4141 27.6922L84.707 26.9851L83.9999 27.6922ZM74.3077 18L73.6006 17.2929L72.8935 18L73.6006 18.7071L74.3077 18ZM74.9852 0.707198L83.2929 9.01487L84.7071 7.60065L76.3994 -0.707018L74.9852 0.707198ZM66.7071 10.3995L76.3994 0.707198L74.9852 -0.707018L65.2929 8.98526L66.7071 10.3995ZM55.6005 0.707107L65.2929 10.3995L66.7071 8.98526L57.0147 -0.707109L55.6005 0.707107ZM48.707 9.01478L57.0147 0.707107L55.6005 -0.707109L47.2928 7.60056L48.707 9.01478ZM58.3994 17.2929L48.707 7.60056L47.2928 9.01478L56.9852 18.7071L58.3994 17.2929ZM48.7071 28.3994L58.3994 18.7071L56.9852 17.2929L47.2929 26.9852L48.7071 28.3994ZM57.0148 35.2929L48.7071 26.9852L47.2929 28.3994L55.6006 36.7071L57.0148 35.2929ZM65.2929 25.6006L55.6006 35.2929L57.0148 36.7071L66.7071 27.0148L65.2929 25.6006ZM76.3993 35.2928L66.7071 25.6006L65.2929 27.0148L74.9851 36.707L76.3993 35.2928ZM83.2928 26.9851L74.9851 35.2928L76.3993 36.707L84.707 28.3993L83.2928 26.9851ZM73.6006 18.7071L83.2928 28.3993L84.707 26.9851L75.0148 17.2929L73.6006 18.7071ZM83.2929 7.60065L73.6006 17.2929L75.0148 18.7071L84.7071 9.01487L83.2929 7.60065Z" fill="#212121" mask="url(#path-3-inside-2_347_1482)"/>
<mask id="path-5-inside-3_347_1482" fill="white">
<path fill-rule="evenodd" clip-rule="evenodd" d="M36.0001 8.30767L27.6924 -3.63137e-07L18.0001 9.69228L8.30767 -9.18445e-05L-2.32513e-05 8.30758L9.69238 17.9999L5.601e-05 27.6922L8.30775 35.9999L18.0001 26.3076L27.6923 35.9998L36 27.6921L26.3078 17.9999L36.0001 8.30767Z"/>
</mask>
<path d="M27.6923 9.02709e-05L28.3994 -0.707018L27.6923 -1.41412L26.9852 -0.707018L27.6923 9.02709e-05ZM36 8.30776L36.7071 9.01487L37.4142 8.30776L36.7071 7.60065L36 8.30776ZM18 9.69237L17.2929 10.3995L18 11.1066L18.7071 10.3995L18 9.69237ZM8.30759 -1.21047e-06L9.0147 -0.707109L8.30759 -1.41421L7.60049 -0.707109L8.30759 -1.21047e-06ZM-0.00010336 8.30767L-0.707207 7.60056L-1.41432 8.30767L-0.707207 9.01478L-0.00010336 8.30767ZM9.6923 18L10.3994 18.7071L11.1065 18L10.3994 17.2929L9.6923 18ZM-2.40987e-05 27.6923L-0.707128 26.9852L-1.41424 27.6923L-0.707128 28.3994L-2.40987e-05 27.6923ZM8.30767 36L7.60057 36.7071L8.30767 37.4142L9.01478 36.7071L8.30767 36ZM18 26.3077L18.7071 25.6006L18 24.8935L17.2929 25.6006L18 26.3077ZM27.6922 35.9999L26.9851 36.707L27.6922 37.4141L28.3993 36.707L27.6922 35.9999ZM35.9999 27.6922L36.707 28.3993L37.4141 27.6922L36.707 26.9851L35.9999 27.6922ZM26.3077 18L25.6006 17.2929L24.8935 18L25.6006 18.7071L26.3077 18ZM26.9852 0.707198L35.2929 9.01487L36.7071 7.60065L28.3994 -0.707018L26.9852 0.707198ZM18.7071 10.3995L28.3994 0.707198L26.9852 -0.707018L17.2929 8.98526L18.7071 10.3995ZM7.60049 0.707107L17.2929 10.3995L18.7071 8.98526L9.0147 -0.707109L7.60049 0.707107ZM0.707004 9.01478L9.0147 0.707107L7.60049 -0.707109L-0.707207 7.60056L0.707004 9.01478ZM10.3994 17.2929L0.707004 7.60056L-0.707207 9.01478L8.98519 18.7071L10.3994 17.2929ZM0.707083 28.3994L10.3994 18.7071L8.98519 17.2929L-0.707128 26.9852L0.707083 28.3994ZM9.01478 35.2929L0.707083 26.9852L-0.707128 28.3994L7.60057 36.7071L9.01478 35.2929ZM17.2929 25.6006L7.60057 35.2929L9.01478 36.7071L18.7071 27.0148L17.2929 25.6006ZM28.3993 35.2928L18.7071 25.6006L17.2929 27.0148L26.9851 36.707L28.3993 35.2928ZM35.2928 26.9851L26.9851 35.2928L28.3993 36.707L36.707 28.3993L35.2928 26.9851ZM25.6006 18.7071L35.2928 28.3993L36.707 26.9851L27.0148 17.2929L25.6006 18.7071ZM35.2929 7.60065L25.6006 17.2929L27.0148 18.7071L36.7071 9.01487L35.2929 7.60065Z" fill="#212121" mask="url(#path-5-inside-3_347_1482)"/>
</svg>
