<svg width="36" height="132" viewBox="0 0 36 132" fill="none" xmlns="http://www.w3.org/2000/svg">
<mask id="path-1-inside-1_347_1232" fill="white">
<path fill-rule="evenodd" clip-rule="evenodd" d="M8.30776 0L9.06341e-05 8.3077L9.69237 18L0 27.6924L8.30767 36.0001L18 26.3077L27.6923 36L36 27.6923L26.3077 18L35.9999 8.30778L27.6922 7.99713e-05L18 9.69231L8.30776 0Z"/>
</mask>
<path d="M9.06341e-05 8.3077L-0.707017 7.60059L-1.41412 8.3077L-0.707017 9.0148L9.06341e-05 8.3077ZM8.30776 0L9.01487 -0.707106L8.30776 -1.41422L7.60065 -0.707106L8.30776 0ZM9.69237 18L10.3995 18.7071L11.1066 18L10.3995 17.2929L9.69237 18ZM0 27.6924L-0.707108 26.9853L-1.41421 27.6924L-0.707108 28.3995L0 27.6924ZM8.30767 36.0001L7.60056 36.7072L8.30767 37.4143L9.01478 36.7072L8.30767 36.0001ZM18 26.3077L18.7071 25.6006L18 24.8935L17.2929 25.6006L18 26.3077ZM27.6923 36L26.9852 36.7071L27.6923 37.4142L28.3994 36.7071L27.6923 36ZM36 27.6923L36.7071 28.3994L37.4142 27.6923L36.7071 26.9852L36 27.6923ZM26.3077 18L25.6006 17.2929L24.8935 18L25.6006 18.7071L26.3077 18ZM35.9999 8.30778L36.707 9.01488L37.4141 8.30778L36.707 7.60067L35.9999 8.30778ZM27.6922 7.99713e-05L28.3993 -0.707026L27.6922 -1.41414L26.9851 -0.707026L27.6922 7.99713e-05ZM18 9.69231L17.2929 10.3994L18 11.1065L18.7071 10.3994L18 9.69231ZM0.707199 9.0148L9.01487 0.707106L7.60065 -0.707106L-0.707017 7.60059L0.707199 9.0148ZM10.3995 17.2929L0.707199 7.60059L-0.707017 9.0148L8.98526 18.7071L10.3995 17.2929ZM0.707108 28.3995L10.3995 18.7071L8.98526 17.2929L-0.707108 26.9853L0.707108 28.3995ZM9.01478 35.293L0.707108 26.9853L-0.707108 28.3995L7.60056 36.7072L9.01478 35.293ZM17.2929 25.6006L7.60056 35.293L9.01478 36.7072L18.7071 27.0148L17.2929 25.6006ZM28.3994 35.2929L18.7071 25.6006L17.2929 27.0148L26.9852 36.7071L28.3994 35.2929ZM35.2929 26.9852L26.9852 35.2929L28.3994 36.7071L36.7071 28.3994L35.2929 26.9852ZM25.6006 18.7071L35.2929 28.3994L36.7071 26.9852L27.0148 17.2929L25.6006 18.7071ZM35.2928 7.60067L25.6006 17.2929L27.0148 18.7071L36.707 9.01488L35.2928 7.60067ZM26.9851 0.707186L35.2928 9.01488L36.707 7.60067L28.3993 -0.707026L26.9851 0.707186ZM18.7071 10.3994L28.3993 0.707186L26.9851 -0.707026L17.2929 8.9852L18.7071 10.3994ZM7.60065 0.707106L17.2929 10.3994L18.7071 8.9852L9.01487 -0.707106L7.60065 0.707106Z" fill="#212121" mask="url(#path-1-inside-1_347_1232)"/>
<mask id="path-3-inside-2_347_1232" fill="white">
<path fill-rule="evenodd" clip-rule="evenodd" d="M8.30776 48L9.06341e-05 56.3077L9.69237 66L0 75.6924L8.30767 84.0001L18 74.3077L27.6923 84L36 75.6923L26.3077 66L35.9999 56.3078L27.6922 48.0001L18 57.6923L8.30776 48Z"/>
</mask>
<path d="M9.06341e-05 56.3077L-0.707017 55.6006L-1.41412 56.3077L-0.707017 57.0148L9.06341e-05 56.3077ZM8.30776 48L9.01487 47.2929L8.30776 46.5858L7.60065 47.2929L8.30776 48ZM9.69237 66L10.3995 66.7071L11.1066 66L10.3995 65.2929L9.69237 66ZM0 75.6924L-0.707108 74.9853L-1.41421 75.6924L-0.707108 76.3995L0 75.6924ZM8.30767 84.0001L7.60056 84.7072L8.30767 85.4143L9.01478 84.7072L8.30767 84.0001ZM18 74.3077L18.7071 73.6006L18 72.8935L17.2929 73.6006L18 74.3077ZM27.6923 84L26.9852 84.7071L27.6923 85.4142L28.3994 84.7071L27.6923 84ZM36 75.6923L36.7071 76.3994L37.4142 75.6923L36.7071 74.9852L36 75.6923ZM26.3077 66L25.6006 65.2929L24.8935 66L25.6006 66.7071L26.3077 66ZM35.9999 56.3078L36.707 57.0149L37.4141 56.3078L36.707 55.6007L35.9999 56.3078ZM27.6922 48.0001L28.3993 47.293L27.6922 46.5859L26.9851 47.293L27.6922 48.0001ZM18 57.6923L17.2929 58.3994L18 59.1065L18.7071 58.3994L18 57.6923ZM0.707199 57.0148L9.01487 48.7071L7.60065 47.2929L-0.707017 55.6006L0.707199 57.0148ZM10.3995 65.2929L0.707199 55.6006L-0.707017 57.0148L8.98526 66.7071L10.3995 65.2929ZM0.707108 76.3995L10.3995 66.7071L8.98526 65.2929L-0.707108 74.9853L0.707108 76.3995ZM9.01478 83.293L0.707108 74.9853L-0.707108 76.3995L7.60056 84.7072L9.01478 83.293ZM17.2929 73.6006L7.60056 83.293L9.01478 84.7072L18.7071 75.0148L17.2929 73.6006ZM28.3994 83.2929L18.7071 73.6006L17.2929 75.0148L26.9852 84.7071L28.3994 83.2929ZM35.2929 74.9852L26.9852 83.2929L28.3994 84.7071L36.7071 76.3994L35.2929 74.9852ZM25.6006 66.7071L35.2929 76.3994L36.7071 74.9852L27.0148 65.2929L25.6006 66.7071ZM35.2928 55.6007L25.6006 65.2929L27.0148 66.7071L36.707 57.0149L35.2928 55.6007ZM26.9851 48.7072L35.2928 57.0149L36.707 55.6007L28.3993 47.293L26.9851 48.7072ZM18.7071 58.3994L28.3993 48.7072L26.9851 47.293L17.2929 56.9852L18.7071 58.3994ZM7.60065 48.7071L17.2929 58.3994L18.7071 56.9852L9.01487 47.2929L7.60065 48.7071Z" fill="#212121" mask="url(#path-3-inside-2_347_1232)"/>
<mask id="path-5-inside-3_347_1232" fill="white">
<path fill-rule="evenodd" clip-rule="evenodd" d="M8.30776 96L9.06341e-05 104.308L9.69237 114L0 123.692L8.30767 132L18 122.308L27.6923 132L36 123.692L26.3077 114L35.9999 104.308L27.6922 96.0001L18 105.692L8.30776 96Z"/>
</mask>
<path d="M9.06341e-05 104.308L-0.707017 103.601L-1.41412 104.308L-0.707017 105.015L9.06341e-05 104.308ZM8.30776 96L9.01487 95.2929L8.30776 94.5858L7.60065 95.2929L8.30776 96ZM9.69237 114L10.3995 114.707L11.1066 114L10.3995 113.293L9.69237 114ZM0 123.692L-0.707108 122.985L-1.41421 123.692L-0.707108 124.4L0 123.692ZM8.30767 132L7.60056 132.707L8.30767 133.414L9.01478 132.707L8.30767 132ZM18 122.308L18.7071 121.601L18 120.893L17.2929 121.601L18 122.308ZM27.6923 132L26.9852 132.707L27.6923 133.414L28.3994 132.707L27.6923 132ZM36 123.692L36.7071 124.399L37.4142 123.692L36.7071 122.985L36 123.692ZM26.3077 114L25.6006 113.293L24.8935 114L25.6006 114.707L26.3077 114ZM35.9999 104.308L36.707 105.015L37.4141 104.308L36.707 103.601L35.9999 104.308ZM27.6922 96.0001L28.3993 95.293L27.6922 94.5859L26.9851 95.293L27.6922 96.0001ZM18 105.692L17.2929 106.399L18 107.107L18.7071 106.399L18 105.692ZM0.707199 105.015L9.01487 96.7071L7.60065 95.2929L-0.707017 103.601L0.707199 105.015ZM10.3995 113.293L0.707199 103.601L-0.707017 105.015L8.98526 114.707L10.3995 113.293ZM0.707108 124.4L10.3995 114.707L8.98526 113.293L-0.707108 122.985L0.707108 124.4ZM9.01478 131.293L0.707108 122.985L-0.707108 124.4L7.60056 132.707L9.01478 131.293ZM17.2929 121.601L7.60056 131.293L9.01478 132.707L18.7071 123.015L17.2929 121.601ZM28.3994 131.293L18.7071 121.601L17.2929 123.015L26.9852 132.707L28.3994 131.293ZM35.2929 122.985L26.9852 131.293L28.3994 132.707L36.7071 124.399L35.2929 122.985ZM25.6006 114.707L35.2929 124.399L36.7071 122.985L27.0148 113.293L25.6006 114.707ZM35.2928 103.601L25.6006 113.293L27.0148 114.707L36.707 105.015L35.2928 103.601ZM26.9851 96.7072L35.2928 105.015L36.707 103.601L28.3993 95.293L26.9851 96.7072ZM18.7071 106.399L28.3993 96.7072L26.9851 95.293L17.2929 104.985L18.7071 106.399ZM7.60065 96.7071L17.2929 106.399L18.7071 104.985L9.01487 95.2929L7.60065 96.7071Z" fill="#212121" mask="url(#path-5-inside-3_347_1232)"/>
</svg>
