<svg width="190" height="142" viewBox="0 0 190 142" fill="none" xmlns="http://www.w3.org/2000/svg">
<g id="Layer_1" clip-path="url(#clip0_360_341)">
<g id="Group">
<path id="Vector" d="M41.7087 24.8533C41.1481 23.296 40.3799 21.5727 39.404 19.6625L41.7087 16.7556C42.6015 18.7281 43.3075 20.5761 43.8058 22.2994C44.3041 24.0228 44.5533 25.8499 44.5533 27.7601C44.5533 29.172 44.3041 30.4386 43.785 31.5391C43.266 32.6395 42.56 33.5739 41.6257 34.3421C40.6913 35.1103 39.5701 35.6709 38.2828 36.0655C36.9747 36.46 35.542 36.6468 33.964 36.6468C31.0364 36.6468 28.7109 35.9616 27.0291 34.5705C25.3473 33.1794 24.496 31.1238 24.496 28.4038C24.496 26.6597 24.6621 25.1232 24.9735 23.7528C25.285 22.3825 25.7418 21.0744 26.3439 19.8078L28.2956 20.9083C27.8596 21.988 27.4444 23.1715 27.0706 24.438C26.6761 25.7046 26.4892 26.9296 26.4892 28.1131C26.4892 29.1513 26.7384 30.0026 27.216 30.6878C27.6935 31.3522 28.3372 31.8713 29.1262 32.245C29.9152 32.6187 30.7872 32.8887 31.7216 33.034C32.6559 33.1794 33.5903 33.2624 34.5039 33.2624C35.7081 33.2624 36.8709 33.1171 37.9921 32.8471C39.1133 32.5772 40.11 32.162 40.9612 31.6221C41.8125 31.0823 42.4562 30.4386 42.8507 29.6496C42.6431 27.9885 42.2693 26.369 41.7087 24.8118V24.8533ZM34.7323 14.7831C35.1891 15.1153 35.6458 15.5098 36.1442 16.0081C35.8327 16.4442 35.5213 16.901 35.2098 17.3577C34.8776 17.8145 34.5454 18.2713 34.2132 18.7281C33.7979 18.3751 33.3826 18.0222 32.9259 17.69C32.4691 17.3577 32.0123 17.0671 31.514 16.8179C31.8462 16.3611 32.1576 15.9043 32.4691 15.4475C32.7805 14.9907 33.092 14.5339 33.4034 14.0771C33.8394 14.2433 34.2755 14.4717 34.7323 14.8039V14.7831Z" fill="white"/>
<path id="Vector_2" d="M51.4052 4.69239C51.5298 5.77208 51.6544 6.93482 51.779 8.22214C51.9035 9.4887 52.0074 10.7968 52.1112 12.1464C52.215 13.4753 52.2773 14.7626 52.3396 15.9876C52.4019 17.2126 52.4226 18.3131 52.4226 19.289C52.4226 21.7598 52.2358 23.7531 51.8413 25.248C51.4468 26.7637 50.8446 27.8434 50.0349 28.4871L48.6645 27.7811C49.1005 26.7845 49.3912 25.7048 49.5781 24.5628C49.7649 23.4209 49.848 21.9259 49.848 20.1195C49.848 18.8737 49.8065 17.5449 49.7442 16.1329C49.6611 14.721 49.5573 13.3091 49.4327 11.8765C49.2874 10.4438 49.142 9.05268 48.9552 7.72383C48.7683 6.39498 48.5607 5.16994 48.353 4.06949L51.0315 1.99316C51.1768 2.69912 51.3014 3.59194 51.426 4.67163L51.4052 4.69239Z" fill="white"/>
<path id="Vector_3" d="M62.4098 21.7601C62.8043 22.4453 63.2195 23.0267 63.6348 23.5043C64.0501 23.9818 64.5276 24.3348 65.0882 24.584C65.6281 24.8331 66.2925 24.9577 67.0607 24.9577V28.1968C66.334 28.1968 65.6696 28.0929 65.109 27.8646C64.5484 27.6362 64.0293 27.3455 63.5517 26.951C63.7594 29.0273 63.5517 30.896 62.9704 32.4948C62.3682 34.1143 61.4754 35.3809 60.2919 36.2944C59.1084 37.208 57.738 37.6648 56.1808 37.6648C55.7655 37.6648 55.3295 37.6441 54.8934 37.5818C54.4574 37.5402 54.0006 37.4364 53.5646 37.3326C53.1078 37.208 52.651 37.0834 52.1735 36.9173L52.9209 34.8825C54.4159 34.7995 55.7863 34.5919 57.0321 34.2804C58.2779 33.969 59.3368 33.4499 60.2296 32.7647C61.1224 32.0795 61.7661 31.1451 62.1814 29.9616C61.953 28.5913 61.5169 27.1586 60.8733 25.6636C60.2296 24.1687 59.2953 22.4869 58.0495 20.6182L60.2296 17.9189L62.4305 21.7601H62.4098Z" fill="white"/>
<path id="Vector_4" d="M74.577 24.9573V28.1964H67.0607C66.8738 28.1964 66.7077 28.1133 66.5831 27.968C66.4585 27.8226 66.3962 27.5942 66.3962 27.3035V25.8293C66.3962 25.5387 66.4585 25.331 66.5831 25.1649C66.7077 25.0196 66.8738 24.9365 67.0607 24.9365H74.577V24.9573Z" fill="white"/>
<path id="Vector_5" d="M82.0933 24.9573V28.1964H74.577C74.3902 28.1964 74.224 28.1133 74.0995 27.968C73.9749 27.8226 73.9126 27.5942 73.9126 27.3035V25.8293C73.9126 25.5387 73.9749 25.331 74.0995 25.1649C74.224 25.0196 74.3902 24.9365 74.577 24.9365H82.0933V24.9573Z" fill="white"/>
<path id="Vector_6" d="M89.6097 24.9573V28.1964H82.0934C81.9065 28.1964 81.7404 28.1133 81.6158 27.968C81.4912 27.8226 81.429 27.5942 81.429 27.3035V25.8293C81.429 25.5387 81.4912 25.331 81.6158 25.1649C81.7404 25.0196 81.9065 24.9365 82.0934 24.9365H89.6097V24.9573Z" fill="white"/>
<path id="Vector_7" d="M91.7897 36.2942C91.0007 36.2942 90.2117 36.3357 89.4019 36.3772C88.6129 36.4187 87.8447 36.4395 87.0972 36.481C87.0142 36.398 86.9311 36.3149 86.848 36.2319C86.765 36.1488 86.6612 36.0658 86.5781 35.962C87.3879 35.692 88.1977 35.4429 89.0074 35.1729C89.8172 34.903 90.6477 34.6331 91.4575 34.3839C92.288 34.114 93.0978 33.8649 93.9283 33.6365C94.7381 33.6365 95.2987 33.7195 95.5894 33.8856C95.8801 34.0517 96.0254 34.3632 96.0254 34.8407C96.0254 35.0276 96.0254 35.256 95.9839 35.5259C95.9424 35.7958 95.9008 36.045 95.8385 36.2734H94.0737C93.3469 36.2734 92.5995 36.2734 91.8105 36.2942H91.7897ZM86.848 36.2319C86.848 36.2319 86.6612 36.0658 86.5781 35.962C86.7027 35.5882 86.8273 35.2352 86.9519 34.8823C87.0764 34.5293 87.201 34.1763 87.3256 33.8233C87.9693 33.7818 88.6129 33.761 89.2981 33.7403C89.9833 33.7195 90.627 33.6988 91.2291 33.678C91.852 33.6572 92.3918 33.6365 92.8694 33.6365C93.3469 33.6365 93.6999 33.6365 93.9491 33.6365C93.1808 33.9479 92.4334 34.2801 91.6651 34.5916C90.8969 34.9238 90.1494 35.2352 89.4019 35.5467C88.6544 35.8581 87.8862 36.1696 87.118 36.481C87.0349 36.398 86.9519 36.3149 86.8688 36.2319H86.848ZM89.1735 27.9266C89.0905 27.7397 89.0282 27.449 89.0282 27.0545V26.0786C89.0282 25.6841 89.0697 25.3934 89.1735 25.2066C89.2566 25.0197 89.4019 24.9367 89.5888 24.9367H90.3363C91.416 24.9367 92.4334 24.8744 93.3885 24.7706C94.3436 24.6667 95.0911 24.4591 95.6101 24.1892C95.5271 23.0472 95.2779 21.8014 94.8834 20.431C94.4889 19.0607 93.9076 17.5657 93.1601 15.9462L95.797 13.4961C96.1292 14.2851 96.4407 15.1987 96.7106 16.2784C97.0013 17.3581 97.2297 18.417 97.3958 19.4759C97.5619 20.5348 97.6449 21.4692 97.6449 22.2582C97.6449 23.2964 97.4996 24.1892 97.2297 24.9159C96.939 25.6426 96.4614 26.4316 95.7555 27.2829C94.8834 27.6151 94.0114 27.8435 93.1393 27.9681C92.2673 28.0927 91.2291 28.155 90.0248 28.155H89.5888C89.4019 28.155 89.2566 28.0719 89.1735 27.885V27.9266Z" fill="white"/>
<path id="Vector_8" d="M104.58 4.69239C104.704 5.77208 104.829 6.93482 104.954 8.22214C105.078 9.4887 105.182 10.7968 105.286 12.1464C105.39 13.4753 105.452 14.7626 105.514 15.9876C105.577 17.2126 105.597 18.3131 105.597 19.289C105.597 21.7598 105.41 23.7531 105.016 25.248C104.621 26.7637 104.019 27.8434 103.21 28.4871L101.839 27.7811C102.275 26.7845 102.566 25.7048 102.753 24.5628C102.94 23.4209 103.023 21.9259 103.023 20.1195C103.023 18.8737 102.981 17.5449 102.919 16.1329C102.836 14.721 102.732 13.3091 102.607 11.8765C102.462 10.4438 102.317 9.05268 102.13 7.72383C101.943 6.39498 101.735 5.16994 101.528 4.06949L104.206 1.99316C104.352 2.69912 104.476 3.59194 104.601 4.67163L104.58 4.69239Z" fill="white"/>
<path id="Vector_9" d="M21.7553 80.1874C21.2154 81.5785 20.4056 82.7621 19.326 83.7379C18.2463 84.7138 16.9382 85.482 15.4225 86.0011C13.9067 86.5202 12.2457 86.7901 10.4393 86.7901C7.24173 86.7901 4.75014 86.0426 2.94373 84.5269C1.13733 83.0112 0.244507 80.7065 0.244507 77.6128C0.244507 75.6818 0.45214 73.9377 0.888168 72.4012C1.3242 70.8647 1.86404 69.3905 2.54923 67.9786L6.16204 69.5358C5.76754 70.491 5.41456 71.5084 5.10311 72.5673C4.7709 73.647 4.62556 74.7267 4.62556 75.8271C4.62556 76.6576 4.81243 77.3636 5.20693 77.9034C5.60143 78.4433 6.12051 78.8793 6.74341 79.1908C7.38707 79.5022 8.09302 79.7306 8.86126 79.8552C9.65027 79.9798 10.4393 80.0421 11.2283 80.0421C12.1834 80.0421 13.1177 79.9382 13.9898 79.7514C14.8618 79.5645 15.6716 79.2946 16.3776 78.9416C17.1043 78.5886 17.7064 78.1526 18.2047 77.675C17.7895 76.097 17.2704 74.5813 16.6267 73.1279C16.0038 71.6745 15.2564 70.1587 14.4051 68.5807L18.6823 63.2861L20.6133 67.2519C21.1531 68.3731 21.693 69.2452 22.2536 69.8473C22.8142 70.4494 23.5617 70.7609 24.5168 70.7609C25.2227 70.7609 25.8041 70.5948 26.2401 70.2833C26.6762 69.9719 27.0291 69.3905 27.3198 68.5807C27.6105 67.7502 27.8804 66.5875 28.1711 65.051L31.8877 65.4662C31.8254 65.7777 31.7839 66.1099 31.7216 66.4629C31.6801 66.8159 31.6386 67.1481 31.6178 67.4595C31.597 67.7917 31.5763 68.0617 31.5763 68.3108C31.5763 69.2659 31.7424 69.8888 32.0954 70.1795C32.4483 70.4702 33.1335 70.5948 34.1509 70.5948C35.2514 70.5948 35.9781 70.4287 36.2895 70.0757C36.601 69.7435 36.7671 69.2036 36.7671 68.4769C36.7671 67.7502 36.7048 66.9404 36.601 66.0269C36.4972 65.134 36.3726 64.3658 36.2273 63.7429L40.1515 62.8916C40.4422 64.698 40.7329 66.1514 41.0236 67.2104C41.3143 68.2693 41.688 69.0375 42.1448 69.5151C42.6016 69.9719 43.2037 70.221 43.972 70.221H44.3665V76.5123H43.702C42.4355 76.5123 41.4181 76.1593 40.6914 75.4741C39.9439 74.7889 39.3625 73.8338 38.9057 72.6088C38.6773 74 38.1582 75.0589 37.3277 75.7648C36.4972 76.4708 35.5213 76.8445 34.4208 76.8445C33.0505 76.8445 31.9915 76.45 31.2233 75.661C30.4551 74.872 29.936 73.8546 29.6868 72.6503C29.3338 73.9377 28.7317 74.9551 27.8804 75.7025C27.0291 76.4708 26.0948 76.8445 25.0566 76.8445C24.5375 76.8445 24.0392 76.7407 23.5617 76.5331C23.0841 76.3254 22.6481 75.9932 22.2328 75.5157C22.3989 77.2183 22.212 78.7755 21.6722 80.1666L21.7553 80.1874Z" fill="white"/>
<path id="Vector_10" d="M43.8889 76.2423C43.7643 76.0555 43.702 75.7025 43.702 75.2042V71.5291C43.702 71.0307 43.7643 70.6778 43.8889 70.4909C44.0135 70.304 44.1796 70.2002 44.4287 70.2002C45.5707 70.2002 46.4635 70.0964 47.1487 69.8888C47.8339 69.6811 48.353 69.3282 48.7475 68.8298C49.142 68.3315 49.4535 67.6463 49.6818 66.7743C49.931 65.9022 50.1594 64.8018 50.4086 63.4729L54.1459 63.9089C54.0629 64.4903 53.9798 65.0302 53.9176 65.5492C53.8553 66.0683 53.8137 66.5459 53.8137 66.9819C53.8137 67.937 54.1044 68.726 54.665 69.3074C55.2256 69.8888 56.2015 70.1794 57.5719 70.1794V76.4707C55.7655 76.4707 54.3951 76.1385 53.44 75.4948C52.4849 74.8512 51.7582 73.7923 51.2599 72.2973C50.6785 73.7923 49.7857 74.8719 48.6022 75.4948C47.4187 76.1385 46.0275 76.4499 44.4287 76.4499C44.2003 76.4499 44.0135 76.3461 43.8889 76.1593V76.2423ZM50.9276 54.7316C51.5713 55.2091 52.1734 55.749 52.7548 56.3511C52.3188 56.974 51.8828 57.5969 51.426 58.2198C50.9692 58.8427 50.5124 59.4864 50.0348 60.13C49.4742 59.6317 48.8928 59.1541 48.2699 58.6974C47.647 58.2406 46.9619 57.8253 46.2559 57.4308C46.7335 56.7871 47.1903 56.1435 47.6263 55.4998C48.0623 54.8561 48.5191 54.2332 48.9551 53.6104C49.6403 53.8595 50.3047 54.2333 50.9484 54.7108L50.9276 54.7316Z" fill="white"/>
<path id="Vector_11" d="M59.8767 85.2957C58.9838 85.3373 58.0495 85.3788 57.0736 85.4411C56.0977 85.5034 55.2049 85.5657 54.3952 85.628C54.229 85.4618 54.0422 85.2957 53.8345 85.1296C53.6269 84.9635 53.44 84.7974 53.2532 84.6105C54.229 84.133 55.2257 83.6347 56.2223 83.1571C57.219 82.6796 58.2156 82.1812 59.233 81.7037C60.2504 81.2261 61.247 80.7486 62.2644 80.271C63.1573 80.271 63.8009 80.4371 64.2369 80.7901C64.6522 81.1223 64.8806 81.6414 64.8806 82.3266C64.8806 82.7626 64.8183 83.2402 64.6937 83.7385C64.5692 84.2368 64.3823 84.7351 64.1124 85.2542H63.6556C63.4895 85.2542 63.2818 85.2542 63.0534 85.2542C62.825 85.2542 62.5344 85.2542 62.1814 85.2542C61.5377 85.2542 60.7695 85.2542 59.8767 85.2957ZM53.8345 85.1504C53.6269 84.9843 53.44 84.8182 53.2532 84.6313C53.5231 83.9461 53.793 83.2817 54.0629 82.6173C54.3329 81.9529 54.6028 81.3092 54.8727 80.6448C55.4748 80.6032 56.1393 80.5617 56.8452 80.5202C57.5512 80.4787 58.2779 80.4371 58.9631 80.3956C59.669 80.3541 60.3127 80.3333 60.8941 80.3126C61.4754 80.3126 61.9322 80.2918 62.2644 80.2918C61.3924 80.8939 60.5203 81.4961 59.6483 82.0982C58.7762 82.7003 57.9041 83.2817 57.0321 83.8838C56.16 84.4652 55.288 85.0466 54.3952 85.6487C54.229 85.4826 54.0422 85.3165 53.8345 85.1504ZM57.0321 76.243C56.9075 76.0561 56.8452 75.7031 56.8452 75.2048V71.5297C56.8452 71.0314 56.9075 70.6784 57.0321 70.4915C57.1567 70.3047 57.3228 70.2008 57.5719 70.2008H59.0461C59.8351 70.2008 60.5411 70.1593 61.2055 70.0763C61.8492 69.9932 62.4098 69.8479 62.8873 69.661C62.7212 68.6644 62.4098 67.6054 61.953 66.4634C61.4754 65.3215 60.9356 64.221 60.3334 63.1206L64.7976 58.7188C65.2543 59.5078 65.6904 60.4006 66.0849 61.4387C66.4794 62.4561 66.8116 63.5566 67.04 64.6986C67.2891 65.8406 67.4137 67.0033 67.4137 68.1453C67.4137 69.2873 67.2061 70.5331 66.8116 71.7166C66.4171 72.9001 65.8357 74.0628 65.0882 75.184C64.1124 75.6408 63.0327 75.9938 61.9115 76.2014C60.7695 76.4091 59.5237 76.5129 58.1118 76.5129H57.5719C57.3435 76.5129 57.1567 76.4091 57.0321 76.2222V76.243Z" fill="white"/>
<path id="Vector_12" d="M79.3526 65.5285C79.9547 66.712 80.5153 67.6671 80.9929 68.3523C81.4704 69.0375 81.9688 69.5358 82.5294 69.8057C83.0692 70.0964 83.7544 70.221 84.5642 70.221V76.5123C84.0036 76.5123 83.526 76.4292 83.1107 76.2839C82.6955 76.1385 82.2802 75.9309 81.865 75.661C81.8027 77.7373 81.4289 79.606 80.7022 81.2255C79.9755 82.8451 79.0204 84.1324 77.8369 85.0667C76.6534 86.0011 75.3245 86.4579 73.8919 86.4579C73.2067 86.4579 72.563 86.4163 71.9401 86.3125C71.3172 86.2087 70.6943 86.0218 70.0299 85.7519C69.3655 85.482 68.6387 85.1083 67.829 84.6099L69.2824 81.184C70.4452 81.0179 71.5664 80.7687 72.6668 80.4158C73.7673 80.0836 74.7639 79.6268 75.6983 79.0454C76.6118 78.464 77.4009 77.7373 78.0445 76.8652C77.6085 75.4326 77.0479 74.0207 76.3834 72.6295C75.719 71.2384 74.8677 69.785 73.8503 68.2485L78.086 63.0369L79.4149 65.5077L79.3526 65.5285ZM78.1691 53.7765C78.8127 54.254 79.4149 54.7939 79.9963 55.396C79.5602 56.0189 79.1242 56.6418 78.6674 57.2647C78.2106 57.8876 77.7538 58.5313 77.2763 59.1749C76.7157 58.6766 76.1343 58.1991 75.5114 57.7423C74.8885 57.2855 74.2033 56.8702 73.4974 56.4757C73.9749 55.8321 74.4317 55.1884 74.8677 54.5447C75.3038 53.9011 75.7606 53.2782 76.1966 52.6553C76.8818 52.9044 77.5462 53.2782 78.1899 53.7557L78.1691 53.7765Z" fill="white"/>
<path id="Vector_13" d="M86.8896 85.2958C85.9968 85.3374 85.0624 85.3789 84.0866 85.4412C83.1107 85.5035 82.2179 85.5658 81.4081 85.628C81.242 85.4619 81.0551 85.2958 80.8475 85.1297C80.6398 84.9636 80.453 84.7975 80.2661 84.6106C81.242 84.1331 82.2386 83.6348 83.2353 83.1572C84.2319 82.6797 85.2285 82.1813 86.2459 81.7038C87.2633 81.2262 88.26 80.7487 89.2774 80.2711C90.1702 80.2711 90.8139 80.4372 91.2499 80.7902C91.6652 81.1224 91.8935 81.6415 91.8935 82.3267C91.8935 82.7627 91.8313 83.2403 91.7067 83.7386C91.5821 84.2369 91.3952 84.7352 91.1253 85.2543H90.6685C90.5024 85.2543 90.2948 85.2543 90.0664 85.2543C89.838 85.2543 89.5473 85.2543 89.1943 85.2543C88.5507 85.2543 87.7824 85.2543 86.8896 85.2958ZM80.8475 85.1505C80.6398 84.9844 80.453 84.8183 80.2661 84.6314C80.536 83.9462 80.806 83.2818 81.0759 82.6174C81.3458 81.9529 81.6157 81.3093 81.8856 80.6449C82.4878 80.6033 83.1522 80.5618 83.8582 80.5203C84.5641 80.4787 85.2908 80.4372 85.976 80.3957C86.682 80.3542 87.3256 80.3334 87.907 80.3126C88.4884 80.3126 88.9452 80.2919 89.2774 80.2919C88.4053 80.894 87.5333 81.4962 86.6612 82.0983C85.7891 82.7004 84.9171 83.2818 84.045 83.8839C83.173 84.4653 82.3009 85.0467 81.4081 85.6488C81.242 85.4827 81.0551 85.3166 80.8475 85.1505ZM84.045 76.243C83.9204 76.0562 83.8582 75.7032 83.8582 75.2049V71.5298C83.8582 71.0315 83.9204 70.6785 84.045 70.4916C84.1696 70.3048 84.3357 70.2009 84.5849 70.2009C85.7268 70.2009 86.6197 70.0971 87.3049 69.8895C87.99 69.6819 88.5091 69.3289 88.9036 68.8306C89.2981 68.3322 89.6096 67.6471 89.838 66.775C90.0871 65.9029 90.3155 64.8025 90.5647 63.4736L94.3021 63.9097C94.219 64.491 94.136 65.0309 94.0737 65.55C94.0114 66.069 93.9699 66.5466 93.9699 66.9826C93.9699 67.9377 94.2606 68.7267 94.8212 69.3081C95.3818 69.8895 96.3576 70.1802 97.728 70.1802V76.4714C95.9216 76.4714 94.5512 76.1392 93.5961 75.4956C92.641 74.8519 91.9143 73.793 91.416 72.298C90.8346 73.793 89.9418 74.8727 88.7583 75.4956C87.5748 76.1392 86.1836 76.4507 84.5849 76.4507C84.3565 76.4507 84.1696 76.3469 84.045 76.16V76.243Z" fill="white"/>
<path id="Vector_14" d="M101.05 81.1638C101.694 81.6414 102.296 82.1812 102.877 82.7834C102.441 83.4063 102.005 84.0292 101.548 84.6521C101.092 85.275 100.635 85.9186 100.157 86.5623C99.5967 86.064 99.0154 85.5864 98.3925 85.1296C97.7696 84.6728 97.1051 84.2576 96.3784 83.8631C96.856 83.2194 97.3128 82.5757 97.7488 81.9321C98.1848 81.2884 98.6416 80.6655 99.0776 80.0426C99.7628 80.2918 100.427 80.6655 101.071 81.1431L101.05 81.1638ZM97.1882 76.2429C97.0636 76.0561 97.0013 75.7031 97.0013 75.2048V71.5297C97.0013 71.0314 97.0636 70.6784 97.1882 70.4915C97.3128 70.3047 97.4789 70.2008 97.728 70.2008H99.2022C99.9912 70.2008 100.697 70.1593 101.362 70.0763C102.005 69.9932 102.566 69.8479 103.043 69.661C102.877 68.6644 102.566 67.6054 102.109 66.4634C101.632 65.3215 101.092 64.221 100.49 63.1206L104.954 58.7188C105.41 59.5078 105.846 60.4006 106.241 61.4387C106.635 62.4561 106.968 63.5566 107.196 64.6986C107.445 65.8405 107.57 67.0033 107.57 68.1453C107.57 69.2873 107.362 70.5331 106.968 71.7166C106.573 72.9001 105.992 74.0628 105.244 75.184C104.268 75.6408 103.189 75.9938 102.068 76.2014C100.926 76.4091 99.6798 76.5129 98.2679 76.5129H97.728C97.4996 76.5129 97.3128 76.4091 97.1882 76.2222V76.2429Z" fill="white"/>
<path id="Vector_15" d="M47.6055 113.658C47.128 112.454 46.4843 111.229 45.6953 109.983L50.1802 105.81C51.8205 108.509 52.651 111.519 52.651 114.8C52.651 117.126 52.1112 119.077 51.0315 120.614C49.9518 122.15 48.3115 123.292 46.1106 124.06C43.9097 124.829 41.0859 125.202 37.6807 125.202C33.2789 125.202 30.019 124.497 27.8804 123.064C25.7418 121.631 24.6621 119.493 24.6621 116.648C24.6621 115.651 24.7659 114.551 24.9736 113.326C25.1812 112.122 25.4719 110.814 25.8664 109.402L29.6661 110.232C29.5 110.668 29.3754 111.166 29.2508 111.727C29.1262 112.288 29.0224 112.848 28.9601 113.388C28.8978 113.928 28.8563 114.406 28.8563 114.821C28.8563 115.859 29.147 116.669 29.7076 117.271C30.289 117.873 31.2441 118.288 32.6144 118.537C33.9848 118.787 35.8535 118.911 38.2205 118.911C39.9231 118.911 41.3973 118.849 42.6431 118.745C43.8889 118.641 45.0101 118.454 45.9652 118.205C46.9203 117.956 47.7924 117.645 48.5814 117.25C48.3945 116.067 48.0623 114.883 47.5848 113.679L47.6055 113.658ZM38.1167 133.487C37.2031 133.529 36.2688 133.57 35.3137 133.632C34.3586 133.695 33.4657 133.757 32.6352 133.819C32.4483 133.674 32.2615 133.508 32.0746 133.342C31.8877 133.176 31.6801 133.009 31.4725 132.823C32.4691 132.345 33.4657 131.847 34.4624 131.369C35.459 130.892 36.4556 130.393 37.473 129.916C38.4904 129.438 39.4871 128.94 40.5045 128.462C41.3973 128.462 42.0617 128.628 42.477 128.981C42.8923 129.314 43.1207 129.833 43.1207 130.539C43.1207 130.975 43.0584 131.431 42.9338 131.93C42.8092 132.428 42.6223 132.947 42.3732 133.466C42.2278 133.466 42.0825 133.466 41.9164 133.466H40.4214C39.7985 133.466 39.0303 133.466 38.1167 133.508V133.487ZM32.0746 133.342C31.8877 133.176 31.6801 133.009 31.4725 132.823C31.7631 132.137 32.0331 131.473 32.303 130.809C32.5729 130.144 32.8428 129.5 33.1335 128.836C33.7149 128.795 34.3793 128.753 35.106 128.691C35.8328 128.649 36.5387 128.608 37.2447 128.566C37.9506 128.525 38.5943 128.504 39.1756 128.483C39.757 128.462 40.193 128.442 40.5252 128.442C39.6532 129.044 38.7811 129.667 37.9091 130.248C37.037 130.829 36.165 131.431 35.2929 132.034C34.4208 132.615 33.5488 133.217 32.656 133.778C32.4691 133.632 32.2822 133.466 32.0954 133.3L32.0746 133.342ZM41.2935 137.079C40.0892 138.574 38.1998 139.529 35.6044 139.944C35.3967 139.758 35.1891 139.571 35.0022 139.384C34.7946 139.197 34.6077 139.031 34.4001 138.844C34.6077 138.304 34.8361 137.785 35.0645 137.245C35.2929 136.705 35.5005 136.186 35.7289 135.667C36.4556 135.522 37.2031 135.418 37.9714 135.335C38.7188 135.252 39.5286 135.19 40.4214 135.148C40.4837 134.857 40.5252 134.567 40.5875 134.276C40.6291 133.985 40.6914 133.674 40.7329 133.362C41.1274 132.885 41.5011 132.407 41.9164 131.93C42.3109 131.473 42.7262 130.995 43.1622 130.539C43.1622 133.404 42.56 135.584 41.3558 137.079H41.2935Z" fill="white"/>
<path id="Vector_16" d="M60.7902 117.582C61.1224 117.894 61.5169 118.122 61.9945 118.288C62.4721 118.455 63.095 118.538 63.884 118.538V124.829C62.1814 124.829 60.7902 124.621 59.7105 124.227C58.6516 123.832 57.8211 123.272 57.2397 122.586C56.6583 121.901 56.2638 121.112 56.0562 120.24C55.8486 119.368 55.7448 118.455 55.7448 117.52V110.98C55.7448 108.945 55.6825 106.952 55.5371 105.041C55.3918 103.131 55.1634 101.387 54.8312 99.8299L60.7902 96.5908V117.562V117.582Z" fill="white"/>
<path id="Vector_17" d="M73.0406 118.559V124.85H63.9047C63.6763 124.85 63.4894 124.767 63.3441 124.58C63.1988 124.414 63.1365 124.082 63.1365 123.646V119.763C63.1365 119.306 63.1988 118.995 63.3441 118.829C63.4894 118.662 63.6763 118.559 63.9047 118.559H73.0406Z" fill="white"/>
<path id="Vector_18" d="M82.1555 118.559V124.85H73.0197C72.7913 124.85 72.6044 124.767 72.4591 124.58C72.3138 124.414 72.2515 124.082 72.2515 123.646V119.763C72.2515 119.306 72.3138 118.995 72.4591 118.829C72.6044 118.662 72.7913 118.559 73.0197 118.559H82.1555Z" fill="white"/>
<path id="Vector_19" d="M91.2914 118.559V124.85H82.1556C81.9272 124.85 81.7403 124.767 81.595 124.58C81.4496 124.414 81.3873 124.082 81.3873 123.646V119.763C81.3873 119.306 81.4496 118.995 81.595 118.829C81.7403 118.662 81.9272 118.559 82.1556 118.559H91.2914Z" fill="white"/>
<path id="Vector_20" d="M108.234 103.796C107.445 103.837 106.594 103.92 105.701 104.045C104.808 104.169 103.874 104.315 102.919 104.501C101.964 104.688 101.009 104.896 100.054 105.104C99.0984 105.332 98.1641 105.581 97.2712 105.851C98.787 107.035 100.137 108.28 101.299 109.568C102.462 110.876 103.376 112.205 104.019 113.575C104.684 114.945 104.995 116.316 104.995 117.686C104.995 118.745 104.767 119.783 104.289 120.801C103.832 121.818 103.21 122.669 102.421 123.375C100.884 123.957 99.3476 124.33 97.8318 124.538C96.3161 124.725 94.6758 124.829 92.9317 124.829H91.2707C91.0423 124.829 90.8554 124.725 90.7308 124.538C90.6062 124.351 90.5439 123.998 90.5439 123.5V119.825C90.5439 119.326 90.6062 118.973 90.7308 118.787C90.8554 118.6 91.0215 118.496 91.2707 118.496H92.9525C93.4716 118.496 94.0114 118.496 94.5928 118.496C95.1741 118.496 95.7348 118.454 96.2954 118.413C96.856 118.371 97.3958 118.309 97.9149 118.226C98.434 118.143 98.8908 118.039 99.3268 117.915C99.7421 117.79 100.095 117.624 100.365 117.416C100.012 116.316 99.4306 115.236 98.6209 114.198C97.8111 113.16 96.7937 112.142 95.5271 111.104L93.5131 112.08L91.5198 107.886L92.1842 105.228C92.4334 104.294 92.7449 103.526 93.0978 102.944C93.4508 102.363 93.9491 101.885 94.5928 101.491C95.2364 101.096 96.0877 100.743 97.1674 100.411C97.8319 100.183 98.6416 99.9543 99.576 99.7259C100.51 99.4975 101.507 99.2899 102.587 99.0823C103.666 98.8746 104.746 98.6878 105.826 98.5424C106.905 98.3763 107.923 98.2725 108.899 98.1895L108.193 103.775L108.234 103.796Z" fill="white"/>
</g>
<path id="Vector_21" d="M116.228 2.01367H114.484V139.944H116.228V2.01367Z" fill="white"/>
<g id="Group_2">
<path id="Vector_22" d="M184.602 54.6487C183.356 54.5033 182.276 54.0466 181.549 53.0084C181.01 52.2402 180.76 51.3473 180.844 50.413C181.03 48.482 182.816 46.9248 184.747 46.9455C186.678 46.9663 188.381 48.5028 188.526 50.5168C188.609 51.6173 188.214 52.6554 187.425 53.4859C186.657 54.2957 185.64 54.5449 184.602 54.6487Z" fill="#21B891"/>
<path id="Vector_23" d="M187.135 26.0576C186.906 27.158 186.449 28.2377 185.744 29.2343C183.937 31.8505 181.383 33.1378 178.186 33.0548C176.338 32.9925 174.656 32.3696 173.203 31.2484C172.102 30.3971 171.977 28.8606 172.808 27.5733C173.41 26.6182 174.282 25.9953 175.258 25.4762C175.715 25.227 176.172 25.0194 176.608 24.7702C176.608 24.7702 176.649 24.7495 176.691 24.7287C176.691 24.7287 176.732 24.7287 176.753 24.6872C176.753 24.6872 176.795 24.6664 176.815 24.6457C176.857 24.6249 176.898 24.6041 176.919 24.5626C176.961 24.5211 177.023 24.5003 177.064 24.4588C177.085 24.438 177.127 24.4173 177.148 24.3965C177.189 24.3757 177.231 24.3342 177.251 24.2927C178.248 23.4414 179.868 21.3858 178.663 17.5862C177.937 15.3437 175.943 14.0564 173.888 13.3089C175.383 13.2466 176.815 13.475 178.227 13.9318C182.318 15.2607 185.411 17.7938 186.802 21.9672C187.259 23.3583 187.342 24.7287 187.072 26.0783L187.135 26.0576Z" fill="#21B891"/>
<path id="Vector_24" d="M189.876 35.9831C189.626 37.831 188.962 39.5959 187.945 41.2569C186.034 44.3922 183.169 46.2816 179.681 47.216C180.075 52.0123 178.871 56.2895 176.068 60.0892C174.262 62.5393 171.915 64.408 169.029 65.5915C169.403 64.8855 169.756 64.1588 170.15 63.4736C171.147 61.7295 172.019 59.9231 172.6 58.0129C173.431 55.3552 173.473 52.6975 172.684 50.019C171.874 47.2575 170.503 44.849 168.655 42.6688C167.493 41.2984 166.33 39.9281 165.126 38.5785C163.382 36.6267 162.302 34.3012 161.388 31.8719C160.786 30.3354 160.475 28.7159 160.475 27.1171C160.475 25.29 160.807 23.4836 161.554 21.781C162.302 20.0576 163.299 18.5834 164.544 17.3584C164.337 17.6906 158.71 27.1794 167.68 35.547C170.379 38.0594 173.929 38.8899 177.604 38.8069C178.933 38.8899 180.241 38.7653 181.466 38.4124C182.712 38.0594 183.937 37.5195 185.1 36.7305C186.782 35.5885 188.111 34.0936 189.003 32.2457C189.17 31.9134 189.336 31.602 189.626 31.0829C190.021 32.8063 190.083 34.4258 189.876 35.9831Z" fill="#21B891"/>
<path id="Vector_25" d="M160.475 1.99341C160.973 3.13539 161.118 4.29813 160.558 5.46087C160.163 6.31217 159.52 6.97659 158.648 7.37109C156.883 8.1601 154.64 7.39186 153.706 5.71003C152.772 4.00744 153.249 1.78577 154.931 0.643794C155.845 0.0208958 156.945 -0.14521 158.045 0.124712C159.146 0.394635 159.852 1.16288 160.454 1.99341H160.475Z" fill="#21B891"/>
<path id="Vector_26" d="M134.396 14.0361C135.476 13.6831 136.618 13.5585 137.843 13.6623C141.019 13.9323 143.407 15.5103 144.902 18.3133C145.774 19.9329 146.065 21.7185 145.816 23.5457C145.629 24.916 144.342 25.8089 142.826 25.7258C141.705 25.6635 140.729 25.2275 139.794 24.6461C139.358 24.3762 138.943 24.0855 138.507 23.8156C138.507 23.8156 138.507 23.8156 138.486 23.8156C138.486 23.8156 138.445 23.7948 138.403 23.7741C138.403 23.7741 138.362 23.7533 138.341 23.7325C138.32 23.7325 138.299 23.7118 138.279 23.691C138.237 23.691 138.196 23.6495 138.154 23.6287C138.113 23.608 138.05 23.5872 137.988 23.5457C137.946 23.5457 137.926 23.5249 137.884 23.5041C137.843 23.5041 137.801 23.4626 137.739 23.4626C136.493 23.0266 133.918 22.6528 131.219 25.5805C129.62 27.3246 129.496 29.7124 129.89 31.851C129.101 30.6052 128.582 29.214 128.271 27.7606C127.378 23.5457 128.042 19.6006 130.97 16.32C131.946 15.2404 133.109 14.4721 134.396 14.0361Z" fill="#21B891"/>
<path id="Vector_27" d="M141.642 6.70703C143.386 6.00108 145.214 5.71039 147.186 5.75192C150.841 5.85574 153.913 7.41298 156.467 9.9461C160.433 7.22611 164.752 6.12566 169.444 6.68627C172.476 7.03924 175.237 8.1397 177.708 10.0499C176.898 10.0707 176.109 10.133 175.3 10.133C173.286 10.133 171.292 10.2783 169.341 10.7143C166.621 11.3165 164.295 12.6038 162.343 14.6178C160.35 16.6942 158.938 19.0819 157.962 21.7604C157.36 23.463 156.737 25.1448 156.177 26.8474C155.346 29.339 153.851 31.4153 152.232 33.4294C151.193 34.7167 149.948 35.7964 148.557 36.5854C146.979 37.499 145.234 38.1011 143.387 38.3087C141.518 38.5164 139.753 38.3918 138.071 37.9142C138.466 37.9142 149.491 38.1011 152.273 26.1414C153.104 22.5494 152.066 19.0404 150.176 15.9052C149.574 14.7009 148.826 13.642 147.913 12.7284C146.999 11.8148 145.899 11.0466 144.653 10.4237C142.826 9.53083 140.874 9.13633 138.819 9.28168C138.466 9.30244 138.092 9.30244 137.51 9.3232C138.819 8.11893 140.189 7.24688 141.642 6.6655V6.70703Z" fill="#21B891"/>
<path id="Vector_28" d="M126.88 49.1265C127.627 48.1299 128.582 47.4239 129.849 47.3408C130.783 47.2578 131.676 47.507 132.444 48.0468C134.022 49.1888 134.458 51.5143 133.441 53.1546C132.444 54.8156 130.264 55.5008 128.437 54.608C127.44 54.1097 126.755 53.2584 126.444 52.1579C126.132 51.0782 126.444 50.0816 126.88 49.1265Z" fill="#21B891"/>
<path id="Vector_29" d="M150.238 65.7986C149.408 65.0512 148.702 64.096 148.204 62.9956C146.854 60.1095 147.041 57.2442 148.743 54.5449C149.719 52.9877 151.11 51.8457 152.834 51.1605C154.121 50.6414 155.512 51.3059 156.197 52.6763C156.696 53.6729 156.8 54.7526 156.758 55.853C156.737 56.3513 156.696 56.8704 156.675 57.3687C156.675 57.3687 156.675 57.3687 156.675 57.3895C156.675 57.3895 156.675 57.431 156.675 57.4726C156.675 57.4726 156.675 57.5141 156.675 57.5349C156.675 57.5556 156.675 57.5764 156.675 57.6179C156.675 57.6594 156.675 57.701 156.675 57.7425C156.675 57.8048 156.675 57.8671 156.675 57.9294C156.675 57.9709 156.675 58.0124 156.675 58.0332C156.675 58.0747 156.675 58.137 156.696 58.1785C156.924 59.4658 157.879 61.9159 161.762 62.788C164.067 63.307 166.185 62.2274 167.866 60.8362C167.181 62.1443 166.226 63.2863 165.126 64.2622C161.907 67.1275 158.149 68.4979 153.851 67.5843C152.419 67.2728 151.194 66.6499 150.176 65.7363L150.238 65.7986Z" fill="#21B891"/>
<path id="Vector_30" d="M140.293 63.141C138.819 61.9783 137.656 60.5248 136.722 58.8015C134.998 55.5624 134.811 52.1365 135.766 48.669C131.427 46.5719 128.354 43.3744 126.506 39.0141C125.302 36.2111 124.886 33.2627 125.322 30.1689C125.738 30.8541 126.174 31.5186 126.589 32.2245C127.586 33.9686 128.707 35.6297 130.057 37.1039C131.925 39.1594 134.188 40.5506 136.908 41.2358C139.691 41.9417 142.473 41.9832 145.276 41.5057C147.041 41.1942 148.827 40.8828 150.571 40.5298C153.145 40.0107 155.699 40.2807 158.253 40.6959C159.893 40.9658 161.43 41.5057 162.821 42.3155C164.399 43.229 165.769 44.4333 166.891 45.949C167.991 47.4647 168.759 49.0635 169.195 50.7661C169.008 50.4131 163.693 40.7582 151.92 44.2672C148.37 45.3261 145.857 47.9631 144.072 51.1606C143.324 52.2818 142.784 53.4446 142.452 54.6904C142.12 55.9362 141.975 57.265 142.058 58.6769C142.182 60.7117 142.805 62.6012 143.947 64.3038C144.155 64.6152 144.321 64.9267 144.632 65.425C142.951 64.8851 141.518 64.1169 140.272 63.1618L140.293 63.141Z" fill="#21B891"/>
<path id="Vector_31" d="M179.328 127.632C175.57 129.334 167.7 131.909 156.218 130.746C169.548 101.906 142.556 68.311 141.871 67.4805C142.307 67.7919 164.005 83.0944 179.349 127.652L179.328 127.632Z" fill="#21B891"/>
<path id="Vector_32" d="M167.077 89.9676C163.901 85.2336 160.475 80.811 160.475 80.811C165.333 71.5713 176.068 66.5674 176.068 66.5674C176.068 66.5674 165.562 77.5719 167.077 89.9468V89.9676Z" fill="#21B891"/>
<path id="Vector_33" d="M182.65 138.159C182.65 138.159 170.732 143.703 150.093 141.461C152.398 138.99 153.997 136.145 155.014 133.944C161.72 134.464 170.4 134.131 180.615 131.557C181.3 133.695 181.985 135.896 182.629 138.159H182.65Z" fill="#21B891"/>
<g id="Group_3">
<path id="Vector_34" d="M176.109 38.62C176.629 38.703 177.127 38.7653 177.625 38.7861C173.971 38.8692 170.42 38.0386 167.7 35.5263C158.71 27.1587 164.357 17.6699 164.565 17.3376C165.645 16.258 166.932 15.3651 168.386 14.6384C169.694 13.9948 171.126 13.7041 172.559 13.4549C173.016 13.3719 173.473 13.3303 173.929 13.3096C175.985 14.057 177.999 15.3444 178.705 17.5868C179.909 21.3657 178.31 23.4213 177.293 24.2933C178.02 23.6497 178.331 22.8399 178.144 21.9471C177.895 20.7428 177.148 19.8708 175.694 19.5801C171.874 18.7911 167.327 21.3865 166.309 25.7883C165.728 28.3214 166.268 30.6261 167.742 32.7232C168.157 33.3046 168.552 33.886 168.988 34.4466C170.836 36.7305 173.182 38.1217 176.089 38.62H176.109Z" fill="#199980"/>
<path id="Vector_35" d="M150.778 17.3377C150.591 16.8394 150.405 16.3826 150.176 15.9258C152.066 19.061 153.104 22.5493 152.273 26.1621C149.491 38.1217 138.466 37.9348 138.071 37.9348C136.597 37.5196 135.185 36.8759 133.835 35.9623C132.61 35.1526 131.676 34.0521 130.721 32.9309C130.43 32.5779 130.16 32.2042 129.911 31.8304C129.537 29.6711 129.641 27.3041 131.24 25.5599C133.918 22.6323 136.514 23.0061 137.76 23.4421C136.846 23.1306 135.974 23.276 135.31 23.8781C134.396 24.6879 134.002 25.7676 134.479 27.1795C135.704 30.8961 140.21 33.533 144.529 32.2249C147.02 31.4775 148.743 29.8579 149.844 27.5324C150.155 26.8888 150.446 26.2451 150.716 25.5807C151.775 22.8607 151.816 20.12 150.799 17.3377H150.778Z" fill="#199980"/>
<path id="Vector_36" d="M145.006 49.9152C144.674 50.3097 144.362 50.725 144.093 51.1402C145.878 47.9427 148.391 45.3058 151.941 44.2468C163.693 40.7378 169.029 50.4135 169.216 50.7457C169.59 52.2199 169.714 53.7772 169.611 55.3967C169.507 56.8501 169.029 58.2205 168.51 59.5909C168.344 60.0269 168.157 60.4422 167.95 60.8367C166.268 62.2486 164.15 63.3075 161.845 62.7884C157.962 61.9164 157.007 59.4871 156.779 58.179C156.966 59.1133 157.506 59.7985 158.378 60.0892C159.54 60.4837 160.662 60.2761 161.658 59.1756C164.274 56.2895 164.337 51.0572 161.056 47.9427C159.167 46.1571 156.903 45.4511 154.35 45.6587C153.644 45.721 152.938 45.7626 152.232 45.8664C149.325 46.3024 146.937 47.6105 145.027 49.8737L145.006 49.9152Z" fill="#199980"/>
<path id="Vector_37" d="M156.198 130.746C152.605 130.393 148.681 129.666 144.404 128.421C150.197 115.34 156.094 92.168 141.85 67.4805C142.535 68.311 169.528 101.906 156.198 130.746Z" fill="#199980"/>
<path id="Vector_38" d="M155.014 133.944C153.997 136.166 152.398 138.99 150.093 141.46C149.221 141.377 148.349 141.253 147.456 141.128C144.549 140.734 141.497 140.194 138.279 139.446C138.279 139.446 140.355 136.643 142.826 131.743C145.401 132.511 149.366 133.467 154.557 133.903C154.703 133.903 154.869 133.923 155.014 133.944Z" fill="#199980"/>
<path id="Vector_39" d="M172.144 99.1034C171.5 96.9233 169.341 93.3728 167.077 89.9676C165.562 77.5927 176.068 66.5674 176.068 66.5674C168.427 80.4995 171.417 95.9474 172.164 99.0827L172.144 99.1034Z" fill="#199980"/>
</g>
</g>
</g>
<defs>
<clipPath id="clip0_360_341">
<rect width="189.756" height="142" fill="white" transform="translate(0.244507)"/>
</clipPath>
</defs>
</svg>
