<svg width="30" height="64" viewBox="0 0 30 64" fill="none" xmlns="http://www.w3.org/2000/svg">
<g clip-path="url(#clip0_360_321)">
<path d="M27.5762 24.6306C27.0148 24.5651 26.5281 24.3593 26.2006 23.8913C25.9573 23.5451 25.845 23.1427 25.8824 22.7216C25.9666 21.8513 26.7714 21.1494 27.6417 21.1588C28.512 21.1681 29.2794 21.8606 29.3449 22.7684C29.3823 23.2644 29.2045 23.7323 28.8489 24.1066C28.5027 24.4715 28.0441 24.5838 27.5762 24.6306Z" fill="#21B891"/>
<path d="M28.7086 11.7446C28.6057 12.2405 28.3998 12.7272 28.0816 13.1763C27.2675 14.3555 26.1164 14.9357 24.6753 14.8982C23.8424 14.8702 23.0844 14.5894 22.4293 14.0841C21.9334 13.7004 21.8772 13.0079 22.2515 12.4277C22.5229 11.9972 22.916 11.7165 23.3558 11.4825C23.5617 11.3702 23.7676 11.2767 23.9641 11.1644C23.9641 11.1644 23.9828 11.155 24.0015 11.1456C24.0015 11.1456 24.0202 11.1456 24.0296 11.1269C24.0296 11.1269 24.0483 11.1176 24.0577 11.1082C24.0764 11.0988 24.0951 11.0895 24.1044 11.0708C24.1232 11.0521 24.1512 11.0427 24.1699 11.024C24.1793 11.0146 24.198 11.0053 24.2074 10.9959C24.2261 10.9866 24.2448 10.9678 24.2542 10.9491C24.7034 10.5654 25.4333 9.63899 24.8905 7.92646C24.563 6.91578 23.6646 6.33558 22.7382 5.99869C23.4119 5.97061 24.0577 6.07355 24.694 6.27943C26.5375 6.87835 27.9319 8.02004 28.5589 9.90101C28.7648 10.528 28.8022 11.1456 28.6805 11.7539L28.7086 11.7446Z" fill="#21B891"/>
<path d="M29.9532 16.2175C29.8409 17.0503 29.5415 17.8458 29.0829 18.5944C28.222 20.0075 26.9305 20.8591 25.3584 21.2802C25.5362 23.4419 24.9934 25.3697 23.7301 27.0822C22.9159 28.1865 21.8585 29.0287 20.5577 29.5621C20.7261 29.2439 20.8852 28.9164 21.063 28.6076C21.5122 27.8215 21.9052 27.0073 22.1673 26.1464C22.5416 24.9486 22.5603 23.7507 22.2047 22.5435C21.8397 21.2989 21.2221 20.2134 20.3892 19.2308C19.8652 18.6131 19.3411 17.9955 18.7984 17.3872C18.0123 16.5076 17.5257 15.4594 17.1139 14.3646C16.8425 13.6721 16.7021 12.9421 16.7021 12.2215C16.7021 11.398 16.8519 10.5839 17.1888 9.81652C17.5257 9.03979 17.9748 8.37537 18.5363 7.82324C18.4428 7.97297 15.9067 12.2496 19.9494 16.0209C21.166 17.1533 22.7662 17.5276 24.4226 17.4902C25.0215 17.5276 25.6111 17.4714 26.1632 17.3123C26.7247 17.1533 27.2768 16.91 27.8008 16.5543C28.5589 16.0396 29.1578 15.3659 29.5602 14.533C29.635 14.3833 29.7099 14.2429 29.8409 14.0089C30.0187 14.7857 30.0468 15.5156 29.9532 16.2175Z" fill="#21B891"/>
<path d="M16.6928 0.898437C16.9174 1.41313 16.9829 1.93719 16.7303 2.46124C16.5525 2.84492 16.2624 3.14438 15.8693 3.32218C15.0739 3.67779 14.0632 3.33154 13.6421 2.57354C13.221 1.80617 13.4362 0.804856 14.1942 0.290161C14.606 0.00941782 15.102 -0.0654469 15.5979 0.0562083C16.0939 0.177864 16.4121 0.524113 16.6835 0.898437H16.6928Z" fill="#21B891"/>
<path d="M4.94843 6.326C5.43505 6.16691 5.94974 6.11076 6.50187 6.15755C7.93366 6.27921 9.00984 6.99042 9.68362 8.25377C10.0767 8.9837 10.2077 9.78849 10.0954 10.612C10.0112 11.2296 9.43095 11.632 8.74781 11.5946C8.24248 11.5665 7.80265 11.37 7.38153 11.108C7.18501 10.9863 6.99785 10.8553 6.80133 10.7337C6.80133 10.7337 6.80133 10.7337 6.79197 10.7337C6.79197 10.7337 6.77326 10.7243 6.75454 10.7149C6.75454 10.7149 6.73582 10.7056 6.72647 10.6962C6.71711 10.6962 6.70775 10.6869 6.69839 10.6775C6.67968 10.6775 6.66096 10.6588 6.64224 10.6494C6.62353 10.6401 6.59545 10.6307 6.56738 10.612C6.54866 10.612 6.5393 10.6026 6.52059 10.5933C6.50187 10.5933 6.48315 10.5746 6.45508 10.5746C5.89359 10.3781 4.73319 10.2096 3.51664 11.5291C2.79607 12.3152 2.73992 13.3914 2.91772 14.3552C2.56211 13.7938 2.32816 13.1668 2.18779 12.5117C1.78539 10.612 2.08485 8.83397 3.40434 7.35539C3.84417 6.86877 4.36823 6.52252 4.94843 6.326Z" fill="#21B891"/>
<path d="M8.21443 3.02255C9.00051 2.70437 9.82403 2.57336 10.713 2.59208C12.3601 2.63887 13.7451 3.34073 14.8961 4.48241C16.6835 3.2565 18.63 2.76052 20.7449 3.01319C22.1112 3.17228 23.3558 3.66826 24.4694 4.5292C24.1045 4.53856 23.7489 4.56664 23.3839 4.56664C22.4762 4.56664 21.5778 4.63214 20.6981 4.82866C19.4722 5.10005 18.4241 5.68025 17.5445 6.58798C16.6461 7.52379 16.0097 8.59997 15.5699 9.80717C15.2985 10.5745 15.0178 11.3325 14.7651 12.0999C14.3908 13.2229 13.717 14.1587 12.9871 15.0664C12.5192 15.6466 11.9577 16.1332 11.3307 16.4888C10.6195 16.9006 9.83338 17.172 9.00051 17.2656C8.15828 17.3591 7.36285 17.303 6.60484 17.0878C6.78265 17.0878 11.7518 17.172 13.0058 11.7817C13.3801 10.1628 12.9122 8.58126 12.0606 7.16819C11.7892 6.62542 11.4523 6.14815 11.0406 5.7364C10.6288 5.32464 10.1328 4.97839 9.57136 4.69765C8.74785 4.29525 7.86818 4.11745 6.94173 4.18295C6.78265 4.19231 6.6142 4.19231 6.35217 4.20167C6.94173 3.6589 7.55937 3.26586 8.21443 3.00383V3.02255Z" fill="#21B891"/>
<path d="M1.56083 22.1414C1.89772 21.6923 2.32819 21.3741 2.89904 21.3366C3.32015 21.2992 3.72255 21.4115 4.0688 21.6548C4.78001 22.1695 4.97653 23.2176 4.51799 23.9569C4.0688 24.7056 3.0862 25.0144 2.26269 24.612C1.8135 24.3874 1.50468 24.0037 1.36431 23.5077C1.22394 23.0211 1.36431 22.5719 1.56083 22.1414Z" fill="#21B891"/>
<path d="M12.0886 29.6559C11.7143 29.319 11.3961 28.8885 11.1715 28.3925C10.5633 27.0917 10.6475 25.8003 11.4148 24.5838C11.8547 23.8819 12.4817 23.3672 13.2584 23.0584C13.8386 22.8244 14.4656 23.1239 14.7744 23.7415C14.999 24.1907 15.0458 24.6773 15.0271 25.1733C15.0177 25.3979 14.999 25.6319 14.9896 25.8565C14.9896 25.8565 14.9896 25.8565 14.9896 25.8658C14.9896 25.8658 14.9896 25.8845 14.9896 25.9033C14.9896 25.9033 14.9896 25.922 14.9896 25.9313C14.9896 25.9407 14.9896 25.95 14.9896 25.9688C14.9896 25.9875 14.9896 26.0062 14.9896 26.0249C14.9896 26.053 14.9896 26.0811 14.9896 26.1091C14.9896 26.1279 14.9896 26.1466 14.9896 26.1559C14.9896 26.1746 14.9896 26.2027 14.999 26.2214C15.1019 26.8016 15.5324 27.9059 17.2824 28.2989C18.3211 28.5329 19.2756 28.0463 20.0337 27.4193C19.7248 28.0088 19.2944 28.5235 18.7984 28.9634C17.3479 30.2548 15.6541 30.8724 13.7169 30.4606C13.0712 30.3203 12.5191 30.0395 12.0606 29.6278L12.0886 29.6559Z" fill="#21B891"/>
<path d="M7.60612 28.4578C6.94169 27.9338 6.41764 27.2787 5.99652 26.502C5.2198 25.0421 5.13558 23.498 5.56605 21.9352C3.61021 20.9901 2.22521 19.5489 1.39234 17.5837C0.849572 16.3204 0.66241 14.9915 0.85893 13.5972C1.04609 13.906 1.24261 14.2054 1.42977 14.5236C1.87896 15.3097 2.3843 16.0583 2.99257 16.7228C3.8348 17.6492 4.85484 18.2762 6.08075 18.585C7.33473 18.9032 8.58871 18.9219 9.85206 18.7067C10.6475 18.5663 11.4523 18.4259 12.2384 18.2669C13.3988 18.0329 14.5498 18.1546 15.7009 18.3417C16.4402 18.4634 17.1327 18.7067 17.7596 19.0717C18.4709 19.4834 19.0885 20.0262 19.5938 20.7093C20.0898 21.3925 20.4361 22.113 20.6326 22.8804C20.5484 22.7213 18.1527 18.3698 12.8466 19.9513C11.2464 20.4286 10.1141 21.6171 9.30929 23.0582C8.9724 23.5635 8.72909 24.0876 8.57936 24.6491C8.42963 25.2106 8.36412 25.8095 8.40155 26.4458C8.4577 27.3629 8.73844 28.2145 9.25314 28.9819C9.34672 29.1222 9.42159 29.2626 9.56196 29.4872C8.80395 29.2439 8.15824 28.8977 7.59676 28.4672L7.60612 28.4578Z" fill="#21B891"/>
<path d="M25.19 57.524C23.4962 58.2913 19.9495 59.4517 14.7744 58.9277C20.7823 45.9293 8.6168 30.7879 8.30798 30.4136C8.5045 30.5539 18.2837 37.4509 25.1993 57.5333L25.19 57.524Z" fill="#21B891"/>
<path d="M19.6687 40.5485C18.237 38.4149 16.6929 36.4216 16.6929 36.4216C18.8827 32.2573 23.7208 30.002 23.7208 30.002C23.7208 30.002 18.9856 34.9617 19.6687 40.5392V40.5485Z" fill="#21B891"/>
<path d="M26.6966 62.2688C26.6966 62.2688 21.325 64.7675 12.0231 63.7568C13.0618 62.6432 13.7824 61.3611 14.2409 60.3692C17.2636 60.6031 21.1753 60.4534 25.7795 59.293C26.0883 60.2569 26.3971 61.2488 26.6872 62.2688H26.6966Z" fill="#21B891"/>
<path d="M23.7394 17.4061C23.9734 17.4435 24.198 17.4716 24.4226 17.4809C22.7755 17.5183 21.1753 17.144 19.9494 16.0117C15.8973 12.2404 18.4427 7.96374 18.5363 7.81401C19.0229 7.32738 19.6031 6.92499 20.2582 6.59745C20.8478 6.30735 21.4935 6.17634 22.1392 6.06404C22.3451 6.02661 22.5509 6.00789 22.7568 5.99854C23.6833 6.33543 24.591 6.91563 24.9092 7.9263C25.4519 9.62948 24.7314 10.5559 24.2728 10.949C24.6004 10.6589 24.7407 10.2939 24.6565 9.8915C24.5442 9.34873 24.2073 8.95569 23.5523 8.82468C21.8304 8.46907 19.7809 9.63883 19.3224 11.6227C19.0604 12.7644 19.3037 13.8032 19.9681 14.7484C20.1553 15.0104 20.3331 15.2724 20.5296 15.5251C21.3625 16.5545 22.4199 17.1815 23.7301 17.4061H23.7394Z" fill="#199980"/>
<path d="M12.3319 7.81409C12.2477 7.58949 12.1635 7.38361 12.0606 7.17773C12.9121 8.59081 13.3801 10.163 13.0057 11.7913C11.7517 17.1815 6.7826 17.0973 6.60479 17.0973C5.94037 16.9102 5.30402 16.6201 4.69574 16.2083C4.14361 15.8433 3.7225 15.3473 3.29203 14.842C3.16101 14.6829 3.03936 14.5145 2.92706 14.346C2.75862 13.3728 2.80541 12.306 3.52598 11.5199C4.73317 10.2004 5.90294 10.3688 6.46442 10.5654C6.05267 10.425 5.65963 10.4905 5.36017 10.7619C4.94841 11.1268 4.77061 11.6135 4.98584 12.2498C5.53797 13.9249 7.56868 15.1134 9.51516 14.5238C10.6381 14.1869 11.4149 13.457 11.9108 12.4089C12.0512 12.1188 12.1822 11.8287 12.3039 11.5292C12.7811 10.3033 12.7999 9.06807 12.3413 7.81409H12.3319Z" fill="#199980"/>
<path d="M9.73036 22.4969C9.58063 22.6747 9.44026 22.8619 9.3186 23.049C10.1234 21.6079 11.2557 20.4194 12.856 19.9421C18.1526 18.3606 20.5577 22.7215 20.6419 22.8712C20.8103 23.5356 20.8665 24.2375 20.8197 24.9674C20.7729 25.6225 20.5577 26.2401 20.3237 26.8578C20.2489 27.0543 20.1646 27.2414 20.0711 27.4193C19.313 28.0556 18.3585 28.5329 17.3198 28.2989C15.5698 27.9059 15.1393 26.811 15.0364 26.2214C15.1206 26.6425 15.3639 26.9513 15.757 27.0824C16.281 27.2602 16.7864 27.1666 17.2356 26.6706C18.4147 25.3698 18.4427 23.0116 16.9642 21.6079C16.1126 20.8031 15.0925 20.4849 13.9415 20.5785C13.6233 20.6066 13.3052 20.6253 12.987 20.6721C11.6768 20.8686 10.6007 21.4581 9.73972 22.4782L9.73036 22.4969Z" fill="#199980"/>
<path d="M14.7744 58.9277C13.1555 58.7686 11.3868 58.4411 9.45903 57.8796C12.0699 51.984 14.7276 41.5403 8.30798 30.4136C8.6168 30.7879 20.7823 45.9293 14.7744 58.9277Z" fill="#199980"/>
<path d="M14.241 60.3689C13.7824 61.3702 13.0619 62.6429 12.0231 63.7565C11.6301 63.7191 11.237 63.663 10.8346 63.6068C9.52451 63.429 8.14887 63.1857 6.69836 62.8488C6.69836 62.8488 7.63417 61.5855 8.74779 59.377C9.90819 59.7232 11.6956 60.1537 14.0351 60.3502C14.1006 60.3502 14.1755 60.3596 14.241 60.3689Z" fill="#199980"/>
<path d="M21.9614 44.6661C21.6713 43.6835 20.698 42.0833 19.678 40.5485C18.9949 34.9711 23.73 30.002 23.73 30.002C20.2863 36.2812 21.6338 43.2437 21.9707 44.6567L21.9614 44.6661Z" fill="#199980"/>
</g>
<defs>
<clipPath id="clip0_360_321">
<rect width="29.216" height="64" fill="white" transform="translate(0.784058)"/>
</clipPath>
</defs>
</svg>
