<svg width="40" height="40" viewBox="0 0 40 40" fill="none" xmlns="http://www.w3.org/2000/svg">
<g id="vuesax/linear/map">
<g id="map">
<path id="Vector" d="M36.6667 15.0002V25.0002C36.6667 29.1669 35.8334 32.0835 33.9667 33.9669L23.3334 23.3335L36.2167 10.4502C36.5167 11.7669 36.6667 13.2669 36.6667 15.0002Z" stroke="#636363" stroke-width="2" stroke-linecap="round" stroke-linejoin="round"/>
<path id="Vector_2" d="M36.2167 10.4502L10.45 36.2168C5.43336 35.0668 3.33337 31.6002 3.33337 25.0002V15.0002C3.33337 6.66683 6.66671 3.3335 15 3.3335H25C31.6 3.3335 35.0667 5.4335 36.2167 10.4502Z" stroke="#636363" stroke-width="2" stroke-linecap="round" stroke-linejoin="round"/>
<path id="Vector_3" d="M33.9666 33.9668C32.0833 35.8335 29.1666 36.6668 25 36.6668H15C13.2666 36.6668 11.7666 36.5168 10.45 36.2168L23.3333 23.3335L33.9666 33.9668Z" stroke="#636363" stroke-width="2" stroke-linecap="round" stroke-linejoin="round"/>
<path id="Vector_4" d="M10.3999 13.3002C11.5333 8.41686 18.8666 8.41686 20 13.3002C20.65 16.1669 18.8499 18.6002 17.2666 20.1002C16.1166 21.2002 14.3 21.2002 13.1333 20.1002C11.55 18.6002 9.73328 16.1669 10.3999 13.3002Z" stroke="#636363" stroke-width="2"/>
<path id="Vector_5" d="M15.1577 14.4998H15.1726" stroke="#636363" stroke-width="2" stroke-linecap="round" stroke-linejoin="round"/>
</g>
</g>
</svg>
