<svg width="69" height="68" viewBox="0 0 69 68" fill="none" xmlns="http://www.w3.org/2000/svg">
<path d="M62.986 25.5V42.5C62.986 49.5833 61.5694 54.5417 58.396 57.7434L40.3193 39.6667L62.221 17.765C62.731 20.0033 62.986 22.5533 62.986 25.5Z" stroke="white" stroke-width="3" stroke-linecap="round" stroke-linejoin="round"/>
<path d="M62.221 17.765L18.4176 61.5683C9.8893 59.6133 6.31934 53.72 6.31934 42.5V25.5C6.31934 11.3333 11.986 5.66666 26.1527 5.66666H43.1527C54.3727 5.66666 60.266 9.23667 62.221 17.765Z" stroke="white" stroke-width="3" stroke-linecap="round" stroke-linejoin="round"/>
<path d="M58.3963 57.7433C55.1947 60.9167 50.2363 62.3333 43.153 62.3333H26.153C23.2063 62.3333 20.6563 62.0783 18.418 61.5683L40.3197 39.6667L58.3963 57.7433Z" stroke="white" stroke-width="3" stroke-linecap="round" stroke-linejoin="round"/>
<path d="M18.3326 22.61C20.2593 14.3083 32.726 14.3083 34.6526 22.61C35.7576 27.4833 32.6976 31.62 30.0059 34.17C28.0509 36.04 24.9626 36.04 22.9793 34.17C20.2876 31.62 17.1993 27.4833 18.3326 22.61Z" stroke="white" stroke-width="3"/>
<path d="M26.4206 24.65H26.4461" stroke="white" stroke-width="3" stroke-linecap="round" stroke-linejoin="round"/>
</svg>
